<?xml version="1.0" encoding="UTF-8" standalone="no"?>
<svg width="52px" height="46px" viewBox="0 0 52 46" version="1.1" xmlns="http://www.w3.org/2000/svg" xmlns:xlink="http://www.w3.org/1999/xlink" xmlns:sketch="http://www.bohemiancoding.com/sketch/ns">
    <title>fb-thumbs-up</title>
    <description>Created with Sketch (http://www.bohemiancoding.com/sketch)</description>
    <defs></defs>
    <g id="Page-1" stroke="none" stroke-width="1" fill="none" fill-rule="evenodd" sketch:type="MSPage">
        <g id="Group" sketch:type="MSLayerGroup" transform="translate(1.000000, 0.000000)">
            <path d="M48.5907295,24.673299 C51.1281155,22.1030412 50.3442249,16.9039175 45.9506079,16.9039175 L34.3901216,16.9124227 C34.8272036,14.4197938 35.4632219,10.2912371 35.437386,9.9007732 C35.1957447,6.20876289 32.8791793,1.71479381 32.7816109,1.52984536 C32.3607903,0.730979381 30.2296353,-0.353969072 28.0855623,0.11257732 C25.3117021,0.716134021 25.0285714,2.51381443 25.0402736,3.00974227 C25.0402736,3.00974227 25.1618541,7.93175258 25.1735562,9.24309278 C23.8493921,12.2053608 19.2796353,19.9878866 17.8920973,20.5875773 C17.562766,20.3837629 17.1841945,20.2742784 16.7952888,20.2742784 L2.18723404,20.2742784 C0.951367781,20.2742784 -0.0504559271,21.2935052 -0.0504559271,22.5511856 L-0.0487841945,43.0908247 C0.0376899696,44.1989691 0.961702128,45.0674227 2.05486322,45.0674227 L15.1697568,45.0674227 C16.3326748,45.0674227 17.2791793,44.1046392 17.2791793,42.9213402 L17.2791793,42.2398454 C17.2791793,42.2398454 17.7670213,42.2059794 17.987234,42.3479381 C18.8305471,42.8930412 19.8743161,43.5790206 21.2331307,43.5790206 L40.812462,43.5790206 C48.1281155,43.5790206 47.3431611,36.9697423 46.6761398,36.065567 C47.9120061,34.6943814 48.6770517,32.2801546 47.6329787,30.3698969 C48.4411854,29.506701 49.8536474,27.1315979 48.5907295,24.673299" id="Fill-7" fill="#2E3131" sketch:type="MSShapeGroup"></path>
            <path d="M45.6193009,19.0591237 L31.8158055,19.0591237 C32.3486322,16.9070103 33.3316109,10.0475258 33.3316109,10.0475258 C33.1088146,6.71768041 30.9200608,2.5393299 30.9200608,2.5393299 C28.318541,1.42530928 27.1493921,2.95345361 27.1493921,2.95345361 C27.1493921,2.95345361 27.2843465,8.24505155 27.2843465,9.46762887 C27.2843465,10.6903608 21.3401216,20.4660309 19.8878419,21.7252577 C19.1182371,22.3928351 17.7364742,23.3104639 16.6112462,24.0230412 L16.6112462,39.7999485 L17.512766,39.8007216 C18.5506079,39.8007216 19.8256839,41.4324742 21.2331307,41.4324742 L41.1455927,41.4238144 C45.1475684,41.4238144 45.7849544,36.8367526 43.143921,36.3963402 L43.2618541,35.8897423 C45.793921,35.6126289 47.3340426,31.5381959 44.1016717,30.7023711 L44.2205167,30.1940722 C46.637386,29.9353608 48.4323708,25.9807732 45.0594225,25.0057732 L45.1781155,24.4984021 C48.3530395,23.9887113 49.000304,19.0597423 45.6193009,19.0591237" id="Fill-8" fill="#FFFFFF" sketch:type="MSShapeGroup"></path>
            <path d="M45.0594225,25.0057732 L45.1781155,24.4984021 C48.3530395,23.9887113 49.000304,19.0597423 45.6193009,19.0591237 L38.9512158,19.0591237 C42.3328267,19.0597423 41.6857143,23.9887113 38.5104863,24.4984021 L38.4592705,24.7997938 C41.8323708,25.7746392 39.968997,29.9353608 37.5524316,30.1940722 L37.5010638,30.4963918 C40.7341945,31.3320619 39.1258359,35.6126289 36.593769,35.8897423 L36.543769,36.1902062 C39.1852584,36.6303093 38.4794833,41.4238144 34.4775076,41.4238144 L21.1930091,41.4292268 L21.2331307,41.4324742 L41.1455927,41.4238144 C45.1475684,41.4238144 45.7849544,36.8367526 43.143921,36.3963402 L43.2618541,35.8897423 C45.793921,35.6126289 47.3340426,31.5381959 44.1016717,30.7023711 L44.2205167,30.1940722 C46.637386,29.9353608 48.4323708,25.9807732 45.0594225,25.0057732" id="Fill-9" fill="#ECEEF3" sketch:type="MSShapeGroup"></path>
            <path d="M2.05486322,22.421134 L15.200304,22.421134 L15.200304,42.9204124 L2.05486322,42.9204124 L2.05486322,22.421134 Z" id="Fill-10" fill="#647A9D" sketch:type="MSShapeGroup"></path>
            <path d="M14.3536474,42.0603093 L2.90106383,42.0603093 L2.90106383,25.0708763 L14.3536474,25.0515464 L14.3536474,42.0603093 L14.3536474,42.0603093 Z M2.05486322,42.9204124 L15.200304,42.9204124 L15.200304,22.421134 L2.05486322,22.421134 L2.05486322,42.9204124 Z" id="Fill-11" fill="#7086A2" sketch:type="MSShapeGroup"></path>
            <path d="M18.5969605,40.2074227 C18.2158055,39.976701 17.856231,39.8036598 17.5209726,39.8008763 C17.856231,39.8036598 18.2161094,39.9753093 18.5969605,40.2063402 L18.5969605,40.2074227 M17.5200608,39.8008763 L17.5173252,39.8008763 L17.5200608,39.8008763 M17.5164134,39.8008763 C17.5151976,39.8007216 17.5139818,39.8007216 17.512766,39.8007216 L16.6112462,39.7999485 L17.512766,39.8007216 C17.5139818,39.8007216 17.5151976,39.8007216 17.5164134,39.8008763 M16.6144377,24.0210309 C16.7799392,23.9158763 18.5679331,22.7287113 18.5969605,22.708299 C17.9579027,23.1567526 17.2458967,23.6209794 16.6144377,24.0210309" id="Fill-12" fill="#2B2F2F" sketch:type="MSShapeGroup"></path>
            <path d="M18.5969605,40.2063402 C18.2161094,39.9753093 17.856231,39.8036598 17.5209726,39.8008763 L17.5200608,39.8008763 L17.5173252,39.8008763 L17.5164134,39.8008763 C17.5151976,39.8007216 17.5139818,39.8007216 17.512766,39.8007216 L16.6112462,39.7999485 L16.6112462,24.0230412 C16.61231,24.0224227 16.6133739,24.0218041 16.6144377,24.0210309 C17.2458967,23.6209794 17.9579027,23.1567526 18.5969605,22.708299 L18.5969605,40.2063402" id="Fill-13" fill="#E6E5E2" sketch:type="MSShapeGroup"></path>
            <path d="M29.0693009,2.13324742 L29.068541,2.13324742 C29.0779635,2.17159794 30.6931611,8.26283505 30.6931611,9.1385567 C30.6931611,10.0148969 25.7914894,17.4504124 26.4475684,18.3915464 C27.3414894,19.6728866 31.8158055,19.0591237 31.8158055,19.0591237 C32.3486322,16.9070103 33.3316109,10.0475258 33.3316109,10.0475258 C33.1088146,6.71768041 30.9200608,2.5393299 30.9200608,2.5393299 C30.8328267,2.50175258 30.0848024,2.13262887 29.0693009,2.13324742" id="Fill-14" fill="#ECEEF3" sketch:type="MSShapeGroup"></path>
        </g>
    </g>
</svg>