<?xml version="1.0" encoding="UTF-8" standalone="no"?>
<svg width="20px" height="20px" viewBox="0 0 20 20" version="1.1" xmlns="http://www.w3.org/2000/svg" xmlns:xlink="http://www.w3.org/1999/xlink" xmlns:sketch="http://www.bohemiancoding.com/sketch/ns">
    <!-- Generator: Sketch 3.0.4 (8054) - http://www.bohemiancoding.com/sketch -->
    <title>Slice 2</title>
    <desc>Created with Sketch.</desc>
    <defs></defs>
    <g id="Page-1" stroke="none" stroke-width="1" fill="none" fill-rule="evenodd" sketch:type="MSPage">
        <path d="M19.9858191,18.0383495 L14.7774572,12.8678641 C15.7574572,11.5303398 16.3366259,9.88548544 16.3366259,8.10878641 C16.3366259,3.63757282 12.6722738,0 8.16826406,0 C3.66430318,0 0,3.63757282 0,8.10878641 C0,12.5799515 3.66435208,16.2175728 8.16826406,16.2175728 C9.87545232,16.2175728 11.4617604,15.6946117 12.7738386,14.8021359 L18.00978,20 L19.9858191,18.0383495 L19.9858191,18.0383495 Z M2.39540342,8.10878641 C2.39540342,4.94878641 4.98508557,2.37791262 8.16826406,2.37791262 C11.3515403,2.37791262 13.9412225,4.94873786 13.9412225,8.10878641 C13.9412225,11.2687864 11.3515403,13.8396602 8.16826406,13.8396602 C4.98508557,13.8396602 2.39540342,11.2687864 2.39540342,8.10878641 L2.39540342,8.10878641 Z" id="Luup" fill="#4C4C4C" sketch:type="MSShapeGroup"></path>
    </g>
</svg>