<?xml version="1.0" encoding="UTF-8" standalone="no"?>
<svg width="212px" height="138px" viewBox="0 0 212 138" version="1.1" xmlns="http://www.w3.org/2000/svg" xmlns:xlink="http://www.w3.org/1999/xlink" xmlns:sketch="http://www.bohemiancoding.com/sketch/ns">
    <title>Untitled</title>
    <description>Created with Sketch (http://www.bohemiancoding.com/sketch)</description>
    <defs></defs>
    <g id="Page-1" stroke="none" stroke-width="1" fill="none" fill-rule="evenodd" sketch:type="MSPage">
        <path d="M35.848,80.318 L48.314,80.318 L48.314,92.778 L35.848,92.778 L35.848,80.318 Z" id="Fill-1" fill="#FFFFFF" sketch:type="MSShapeGroup"></path>
        <path d="M131.122,0.912 L143.595,0.912 L143.595,13.375 L131.122,13.375 L131.122,0.912 Z" id="Fill-2" fill="#FFFFFF" sketch:type="MSShapeGroup"></path>
        <path d="M115.247,0.912 L127.711,0.912 L127.711,13.375 L115.247,13.375 L115.247,0.912 Z" id="Fill-3" fill="#FFFFFF" sketch:type="MSShapeGroup"></path>
        <path d="M51.723,0.912 L64.192,0.912 L64.192,13.375 L51.723,13.375 L51.723,0.912 Z" id="Fill-4" fill="#FFFFFF" sketch:type="MSShapeGroup"></path>
        <path d="M147.01,0.912 L159.473,0.912 L159.473,13.375 L147.01,13.375 L147.01,0.912 Z" id="Fill-5" fill="#FFFFFF" sketch:type="MSShapeGroup"></path>
        <path d="M99.366,0.912 L111.832,0.912 L111.832,13.375 L99.366,13.375 L99.366,0.912 Z" id="Fill-6" fill="#FFFFFF" sketch:type="MSShapeGroup"></path>
        <path d="M83.482,0.912 L95.945,0.912 L95.945,13.375 L83.482,13.375 L83.482,0.912 Z" id="Fill-7" fill="#FFFFFF" sketch:type="MSShapeGroup"></path>
        <path d="M67.604,0.912 L80.067,0.912 L80.067,13.375 L67.604,13.375 L67.604,0.912 Z" id="Fill-8" fill="#FFFFFF" sketch:type="MSShapeGroup"></path>
        <path d="M35.848,0.912 L48.314,0.912 L48.314,13.375 L35.848,13.375 L35.848,0.912 Z" id="Fill-9" fill="#FFFFFF" sketch:type="MSShapeGroup"></path>
        <path d="M131.122,80.318 L143.595,80.318 L143.595,92.778 L131.122,92.778 L131.122,80.318 Z" id="Fill-10" fill="#FFFFFF" sketch:type="MSShapeGroup"></path>
        <path d="M67.604,80.318 L80.067,80.318 L80.067,92.778 L67.604,92.778 L67.604,80.318 Z" id="Fill-11" fill="#FFFFFF" sketch:type="MSShapeGroup"></path>
        <path d="M51.723,80.318 L64.192,80.318 L64.192,92.778 L51.723,92.778 L51.723,80.318 Z" id="Fill-12" fill="#FFFFFF" sketch:type="MSShapeGroup"></path>
        <path d="M147.01,80.318 L159.473,80.318 L159.473,92.778 L147.01,92.778 L147.01,80.318 Z" id="Fill-13" fill="#FFFFFF" sketch:type="MSShapeGroup"></path>
        <path d="M19.936,16.79 L32.402,16.79 L32.402,29.253 L19.936,29.253 L19.936,16.79 Z" id="Fill-14" fill="#FFFFFF" sketch:type="MSShapeGroup"></path>
        <path d="M19.936,32.671 L32.402,32.671 L32.402,45.137 L19.936,45.137 L19.936,32.671 Z" id="Fill-15" fill="#FFFFFF" sketch:type="MSShapeGroup"></path>
        <path d="M19.936,48.556 L32.402,48.556 L32.402,61.019 L19.936,61.019 L19.936,48.556 Z" id="Fill-16" fill="#FFFFFF" sketch:type="MSShapeGroup"></path>
        <path d="M19.936,64.436 L32.402,64.436 L32.402,76.896 L19.936,76.896 L19.936,64.436 Z" id="Fill-17" fill="#FFFFFF" sketch:type="MSShapeGroup"></path>
        <path d="M131.122,16.79 L143.595,16.79 L143.595,29.253 L131.122,29.253 L131.122,16.79 Z" id="Fill-18" fill="#FFFFFF" sketch:type="MSShapeGroup"></path>
        <path d="M131.122,32.671 L143.595,32.671 L143.595,45.137 L131.122,45.137 L131.122,32.671 Z" id="Fill-19" fill="#FFFFFF" sketch:type="MSShapeGroup"></path>
        <path d="M131.122,48.556 L143.595,48.556 L143.595,61.019 L131.122,61.019 L131.122,48.556 Z" id="Fill-20" fill="#FFFFFF" sketch:type="MSShapeGroup"></path>
        <path d="M131.122,64.436 L143.595,64.436 L143.595,76.896 L131.122,76.896 L131.122,64.436 Z" id="Fill-21" fill="#FFFFFF" sketch:type="MSShapeGroup"></path>
        <path d="M115.247,16.79 L127.711,16.79 L127.711,29.253 L115.247,29.253 L115.247,16.79 Z" id="Fill-22" fill="#FFFFFF" sketch:type="MSShapeGroup"></path>
        <path d="M67.604,64.436 L80.067,64.436 L80.067,76.896 L67.604,76.896 L67.604,64.436 Z" id="Fill-23" fill="#FFFFFF" sketch:type="MSShapeGroup"></path>
        <path d="M51.723,16.79 L64.192,16.79 L64.192,29.253 L51.723,29.253 L51.723,16.79 Z" id="Fill-24" fill="#FFFFFF" sketch:type="MSShapeGroup"></path>
        <path d="M51.723,32.671 L64.192,32.671 L64.192,45.137 L51.723,45.137 L51.723,32.671 Z" id="Fill-25" fill="#FFFFFF" sketch:type="MSShapeGroup"></path>
        <path d="M51.723,48.556 L64.192,48.556 L64.192,61.019 L51.723,61.019 L51.723,48.556 Z" id="Fill-26" fill="#FFFFFF" sketch:type="MSShapeGroup"></path>
        <path d="M51.723,64.436 L64.192,64.436 L64.192,76.896 L51.723,76.896 L51.723,64.436 Z" id="Fill-27" fill="#FFFFFF" sketch:type="MSShapeGroup"></path>
        <path d="M147.01,16.79 L159.473,16.79 L159.473,29.253 L147.01,29.253 L147.01,16.79 Z" id="Fill-28" fill="#FFFFFF" sketch:type="MSShapeGroup"></path>
        <path d="M147.01,32.671 L159.473,32.671 L159.473,45.137 L147.01,45.137 L147.01,32.671 Z" id="Fill-29" fill="#FFFFFF" sketch:type="MSShapeGroup"></path>
        <path d="M147.01,48.556 L159.473,48.556 L159.473,61.019 L147.01,61.019 L147.01,48.556 Z" id="Fill-30" fill="#FFFFFF" sketch:type="MSShapeGroup"></path>
        <path d="M147.01,64.436 L159.473,64.436 L159.473,76.896 L147.01,76.896 L147.01,64.436 Z" id="Fill-31" fill="#FFFFFF" sketch:type="MSShapeGroup"></path>
        <path d="M178.803,16.79 L191.263,16.79 L191.263,29.253 L178.803,29.253 L178.803,16.79 Z" id="Fill-32" fill="#FFFFFF" sketch:type="MSShapeGroup"></path>
        <path d="M178.803,32.671 L191.263,32.671 L191.263,45.137 L178.803,45.137 L178.803,32.671 Z" id="Fill-33" fill="#FFFFFF" sketch:type="MSShapeGroup"></path>
        <path d="M178.803,48.556 L191.263,48.556 L191.263,61.019 L178.803,61.019 L178.803,48.556 Z" id="Fill-34" fill="#FFFFFF" sketch:type="MSShapeGroup"></path>
        <path d="M178.803,64.436 L191.263,64.436 L191.263,76.896 L178.803,76.896 L178.803,64.436 Z" id="Fill-35" fill="#FFFFFF" sketch:type="MSShapeGroup"></path>
        <path d="M191.26,10.851 C191.257,8.117 190.093,5.64 188.195,3.825 C186.295,2.011 183.701,0.903 180.843,0.903 L178.803,0.903 L178.803,13.375 L191.26,13.375 L191.26,10.851" id="Fill-36" fill="#FFFFFF" sketch:type="MSShapeGroup"></path>
        <path d="M178.803,80.309 L178.803,92.692 L180.847,92.692 C183.711,92.692 186.317,91.589 188.219,89.792 C190.121,87.988 191.285,85.535 191.291,82.817 L191.291,80.309 L178.803,80.309" id="Fill-37" fill="#FFFFFF" sketch:type="MSShapeGroup"></path>
        <path d="M115.247,32.671 L127.711,32.671 L127.711,45.137 L115.247,45.137 L115.247,32.671 Z" id="Fill-38" fill="#FFFFFF" sketch:type="MSShapeGroup"></path>
        <path d="M115.247,48.556 L127.711,48.556 L127.711,61.019 L115.247,61.019 L115.247,48.556 Z" id="Fill-39" fill="#FFFFFF" sketch:type="MSShapeGroup"></path>
        <path d="M115.247,64.436 L127.711,64.436 L127.711,76.896 L115.247,76.896 L115.247,64.436 Z" id="Fill-40" fill="#FFFFFF" sketch:type="MSShapeGroup"></path>
        <path d="M83.482,16.79 L95.945,16.79 L95.945,29.253 L83.482,29.253 L83.482,16.79 Z" id="Fill-41" fill="#FFFFFF" sketch:type="MSShapeGroup"></path>
        <path d="M83.482,48.556 L95.945,48.556 L95.945,61.019 L83.482,61.019 L83.482,48.556 Z" id="Fill-42" fill="#FFFFFF" sketch:type="MSShapeGroup"></path>
        <path d="M83.482,64.436 L95.945,64.436 L95.945,76.896 L83.482,76.896 L83.482,64.436 Z" id="Fill-43" fill="#FFFFFF" sketch:type="MSShapeGroup"></path>
        <path d="M67.604,16.79 L80.067,16.79 L80.067,29.253 L67.604,29.253 L67.604,16.79 Z" id="Fill-44" fill="#FFFFFF" sketch:type="MSShapeGroup"></path>
        <path d="M67.604,32.671 L80.067,32.671 L80.067,45.137 L67.604,45.137 L67.604,32.671 Z" id="Fill-45" fill="#FFFFFF" sketch:type="MSShapeGroup"></path>
        <path d="M67.604,48.556 L80.067,48.556 L80.067,61.019 L67.604,61.019 L67.604,48.556 Z" id="Fill-46" fill="#FFFFFF" sketch:type="MSShapeGroup"></path>
        <path d="M35.848,16.79 L48.314,16.79 L48.314,29.253 L35.848,29.253 L35.848,16.79 Z" id="Fill-47" fill="#FFFFFF" sketch:type="MSShapeGroup"></path>
        <path d="M35.848,32.671 L48.314,32.671 L48.314,45.137 L35.848,45.137 L35.848,32.671 Z" id="Fill-48" fill="#FFFFFF" sketch:type="MSShapeGroup"></path>
        <path d="M35.848,48.556 L48.314,48.556 L48.314,61.019 L35.848,61.019 L35.848,48.556 Z" id="Fill-49" fill="#FFFFFF" sketch:type="MSShapeGroup"></path>
        <path d="M35.848,64.436 L48.314,64.436 L48.314,76.896 L35.848,76.896 L35.848,64.436 Z" id="Fill-50" fill="#FFFFFF" sketch:type="MSShapeGroup"></path>
        <path d="M22.895,3.788 C21.026,5.61 19.874,8.101 19.874,10.842 L19.874,13.375 L32.402,13.375 L32.402,0.847 L30.139,0.847 C27.315,0.847 24.766,1.971 22.895,3.788" id="Fill-51" fill="#FFFFFF" sketch:type="MSShapeGroup"></path>
        <path d="M19.924,82.835 C19.924,85.562 21.066,88.028 22.928,89.838 C24.794,91.648 27.337,92.75 30.145,92.75 L32.402,92.75 L32.402,80.309 L19.924,80.309 L19.924,82.835" id="Fill-52" fill="#FFFFFF" sketch:type="MSShapeGroup"></path>
        <path d="M162.891,0.912 L175.356,0.912 L175.356,13.375 L162.891,13.375 L162.891,0.912 Z" id="Fill-53" fill="#FFFFFF" sketch:type="MSShapeGroup"></path>
        <path d="M162.891,80.318 L175.356,80.318 L175.356,92.778 L162.891,92.778 L162.891,80.318 Z" id="Fill-54" fill="#FFFFFF" sketch:type="MSShapeGroup"></path>
        <path d="M162.891,16.79 L175.356,16.79 L175.356,29.253 L162.891,29.253 L162.891,16.79 Z" id="Fill-55" fill="#FFFFFF" sketch:type="MSShapeGroup"></path>
        <path d="M162.891,32.671 L175.356,32.671 L175.356,45.137 L162.891,45.137 L162.891,32.671 Z" id="Fill-56" fill="#FFFFFF" sketch:type="MSShapeGroup"></path>
        <path d="M162.891,48.556 L175.356,48.556 L175.356,61.019 L162.891,61.019 L162.891,48.556 Z" id="Fill-57" fill="#FFFFFF" sketch:type="MSShapeGroup"></path>
        <path d="M162.891,64.436 L175.356,64.436 L175.356,76.896 L162.891,76.896 L162.891,64.436 Z" id="Fill-58" fill="#FFFFFF" sketch:type="MSShapeGroup"></path>
        <path d="M156.211,123.004 L155.781,118.099 L137.538,118.099 L137.795,123.004 L156.211,123.004" id="Fill-59" fill="#FFFFFF" sketch:type="MSShapeGroup"></path>
        <path d="M55.429,118.099 L55.029,123.004 L73.514,123.004 L73.74,118.099 L55.429,118.099" id="Fill-60" fill="#FFFFFF" sketch:type="MSShapeGroup"></path>
        <path d="M204.943,135.815 C205.649,135.562 206.321,135.242 206.941,134.864 C207.568,134.483 208.137,134.047 208.636,133.567 C209.142,133.08 209.58,132.556 209.941,132.006 C210.292,131.459 210.573,130.879 210.774,130.283 C210.975,129.692 211.1,129.065 211.146,128.421 C211.193,127.788 211.158,127.127 211.046,126.459 L207.517,105.593 L200.551,105.588 L203.51,124.501 C203.554,124.917 203.547,125.314 203.496,125.7 C203.443,126.085 203.345,126.462 203.204,126.822 C203.069,127.177 202.885,127.525 202.657,127.855 C202.438,128.171 202.167,128.483 201.856,128.777 C201.534,129.079 201.175,129.351 200.784,129.584 C200.389,129.819 199.969,130.015 199.533,130.169 C199.101,130.324 198.646,130.439 198.143,130.524 C197.647,130.603 197.146,130.643 196.648,130.643 L178.574,130.63 L179.268,136.608 L200.275,136.617 C201.096,136.615 201.912,136.543 202.704,136.406 C203.49,136.27 204.243,136.071 204.943,135.815" id="Fill-61" fill="#FFFFFF" sketch:type="MSShapeGroup"></path>
        <path d="M162.539,110.993 L164.382,130.624 L136.6,130.612 L136.905,136.589 L172.286,136.605 L168.977,105.565 L135.38,105.54 L135.659,110.975 L162.539,110.993" id="Fill-62" fill="#FFFFFF" sketch:type="MSShapeGroup"></path>
        <path d="M48.652,110.917 L75.572,110.936 L75.809,105.497 L42.131,105.473 L39.017,136.543 L74.494,136.562 L74.76,130.578 L46.932,130.563 L46.971,130.135 L48.652,110.917" id="Fill-63" fill="#FFFFFF" sketch:type="MSShapeGroup"></path>
        <path d="M102.491,135.488 C102.596,135.614 102.71,135.738 102.832,135.852 C102.957,135.971 103.087,136.083 103.218,136.187 C103.349,136.287 103.491,136.386 103.632,136.476 C103.768,136.553 103.928,136.631 104.094,136.699 C104.256,136.763 104.428,136.817 104.605,136.863 C104.788,136.91 104.97,136.945 105.159,136.968 C105.545,137.011 105.965,137.011 106.338,136.968 C106.524,136.945 106.702,136.91 106.874,136.865 C107.044,136.822 107.207,136.767 107.365,136.701 C107.524,136.636 107.672,136.557 107.816,136.472 C107.948,136.387 108.09,136.288 108.223,136.19 C108.348,136.091 108.48,135.985 108.597,135.867 C108.727,135.746 108.842,135.623 108.948,135.496 C109.054,135.37 109.153,135.234 109.243,135.092 L130.492,105.537 L122.5,105.532 L105.982,128.63 L89.251,105.506 L80.79,105.502 L102.178,135.068 C102.281,135.227 102.383,135.358 102.491,135.488" id="Fill-65" fill="#FFFFFF" sketch:type="MSShapeGroup"></path>
        <path d="M14.583,130.547 C14.074,130.547 13.566,130.507 13.072,130.425 C12.587,130.345 12.116,130.225 11.675,130.066 C11.229,129.91 10.804,129.709 10.414,129.471 C10.009,129.227 9.642,128.952 9.325,128.652 C9.007,128.358 8.723,128.031 8.487,127.68 C8.259,127.337 8.07,126.969 7.927,126.579 C7.789,126.201 7.697,125.8 7.652,125.386 C7.612,124.979 7.618,124.562 7.672,124.144 L10.482,105.451 L3.511,105.445 L0.112,126.34 C0.002,127.01 -0.027,127.672 0.025,128.309 C0.074,128.947 0.204,129.577 0.41,130.181 C0.616,130.783 0.906,131.367 1.262,131.911 C1.629,132.469 2.071,132.992 2.577,133.462 C3.101,133.956 3.677,134.394 4.286,134.765 C4.908,135.143 5.581,135.464 6.288,135.722 C6.991,135.978 7.749,136.177 8.543,136.314 C9.325,136.452 10.15,136.525 10.997,136.531 L32.058,136.54 L32.711,130.556 L14.583,130.547" id="Fill-66" fill="#FFFFFF" sketch:type="MSShapeGroup"></path>
    </g>
</svg>