<?xml version="1.0" encoding="UTF-8" standalone="no"?>
<svg width="135px" height="25px" viewBox="0 0 135 25" version="1.1" xmlns="http://www.w3.org/2000/svg" xmlns:xlink="http://www.w3.org/1999/xlink" xmlns:sketch="http://www.bohemiancoding.com/sketch/ns">
    <!-- Generator: Sketch 3.0.4 (8054) - http://www.bohemiancoding.com/sketch -->
    <title>Untitled-1 copy + Shape 2</title>
    <desc>Created with Sketch.</desc>
    <defs>
        <linearGradient x1="77.5305966%" y1="150.133602%" x2="-72.981264%" y2="44.899773%" id="linearGradient-1">
            <stop stop-color="#000000" offset="0%"></stop>
            <stop stop-color="#27FFD4" offset="100%"></stop>
        </linearGradient>
        <linearGradient x1="-22.8514189%" y1="111.442489%" x2="29.2465345%" y2="-62.6072497%" id="linearGradient-2">
            <stop stop-color="#000000" offset="0%"></stop>
            <stop stop-color="#27FFD4" offset="100%"></stop>
        </linearGradient>
        <linearGradient x1="177.999453%" y1="48.7313105%" x2="17.8314861%" y2="145.914345%" id="linearGradient-3">
            <stop stop-color="#000000" offset="0%"></stop>
            <stop stop-color="#27FFD4" offset="100%"></stop>
        </linearGradient>
        <linearGradient x1="131.071542%" y1="-1.44528336%" x2="62.7419323%" y2="172.435316%" id="linearGradient-4">
            <stop stop-color="#000000" offset="0%"></stop>
            <stop stop-color="#27FFD4" offset="100%"></stop>
        </linearGradient>
        <linearGradient x1="-4.77141818%" y1="-28.3066701%" x2="168.850993%" y2="34.6126491%" id="linearGradient-5">
            <stop stop-color="#000000" offset="0%"></stop>
            <stop stop-color="#27FFD4" offset="100%"></stop>
        </linearGradient>
        <linearGradient x1="-28.2354207%" y1="-6.2380804%" x2="145.678996%" y2="13.5936738%" id="linearGradient-6">
            <stop stop-color="#000000" offset="0%"></stop>
            <stop stop-color="#27FFD4" offset="100%"></stop>
        </linearGradient>
    </defs>
    <g id="Page-1" stroke="none" stroke-width="1" fill="none" fill-rule="evenodd" sketch:type="MSPage">

        <g id="Untitled-1-copy-+-Shape-2" sketch:type="MSLayerGroup" transform="translate(1.000000, 1.000000)">
            <g id="Untitled-1-copy" sketch:type="MSShapeGroup">
                <g id="Group" transform="translate(34.982630, 1.641791)" fill="#FFFFFF">
                    <path d="M47.7875931,0.164179104 L42.6722084,15.3671642 L42.1111663,15.3671642 L36.9957816,0.164179104 L38.8769231,0.164179104 L42.4741935,10.7701493 L46.1044665,0.164179104 L47.7875931,0.164179104 L47.7875931,0.164179104 Z" id="Shape"></path>
                    <path d="M27.0290323,6.86268657 L27.0290323,8.43880597 L21.6496278,8.43880597 L21.6496278,13.6597015 L28.6131514,13.6597015 L28.6131514,15.3671642 L19.7684864,15.3671642 L19.7684864,0.164179104 L28.382134,0.164179104 L28.1511166,1.87164179 L21.6166253,1.87164179 L21.6166253,6.86268657 L27.0290323,6.86268657 L27.0290323,6.86268657 Z" id="Shape"></path>
                    <path d="M63.6947891,6.86268657 L63.6947891,8.43880597 L58.3153846,8.43880597 L58.3153846,13.6597015 L65.2789082,13.6597015 L65.2789082,15.3671642 L56.4342432,15.3671642 L56.4342432,0.164179104 L65.0808933,0.164179104 L64.8498759,1.87164179 L58.3153846,1.87164179 L58.3153846,6.86268657 L63.6947891,6.86268657 L63.6947891,6.86268657 Z" id="Shape"></path>
                    <path d="M2.04615385,0.164179104 L2.04615385,13.6597015 L9.00967742,13.6597015 L9.00967742,15.3671642 L0.132009926,15.3671642 L0.132009926,0.164179104 L2.04615385,0.164179104 L2.04615385,0.164179104 Z" id="Shape"></path>
                    <path d="M77.7208437,0.164179104 L77.7208437,13.6597015 L84.6843672,13.6597015 L84.4533499,15.3671642 L75.8066998,15.3671642 L75.8066998,0.164179104 L77.7208437,0.164179104 L77.7208437,0.164179104 Z" id="Shape"></path>
                    <path d="M95.9052109,15.3671642 L95.9052109,2.16716418 L92.4069479,4.26865672 L91.6148883,2.95522388 L96.1362283,0.164179104 L97.7533499,0.164179104 L97.7533499,15.3671642 L95.9052109,15.3671642 L95.9052109,15.3671642 Z" id="Shape"></path>
                </g>
                <path d="M21.8146402,9.65373134 L6.96352357,15.9253731 L8.94367246,0 L21.8146402,9.65373134 L21.8146402,9.65373134 Z" id="Shape" stroke="url(#linearGradient-1)" stroke-width="0.5"></path>
                <path d="M16.4022333,21.8358209 L5.37940447,10.1134328 L21.0885856,6.53432836 L16.4022333,21.8358209 L16.4022333,21.8358209 Z" id="Shape" stroke="url(#linearGradient-2)" stroke-width="0.5"></path>
                <path d="M14.8511166,0.591044776 L16.0062035,16.6149254 L1.51811414,9.55522388 L14.8511166,0.591044776 L14.8511166,0.591044776 Z" id="Shape" stroke="url(#linearGradient-3)" stroke-width="0.5"></path>
                <path d="M6.79851117,1.18208955 L16.5342432,13.9880597 L0.528039702,15.9253731 L6.79851117,1.18208955 L6.79851117,1.18208955 Z" id="Shape" stroke="url(#linearGradient-4)" stroke-width="0.5"></path>
                <path d="M-0.165012407,13.7910448 L12.3759305,3.67761194 L14.8841191,19.5373134 L-0.165012407,13.7910448 L-0.165012407,13.7910448 Z" id="Shape" stroke="url(#linearGradient-5)" stroke-width="0.5"></path>
                <path d="M3.33325062,17.5671642 L12.8049628,4.5641791 L19.3394541,19.241791 L3.33325062,17.5671642 L3.33325062,17.5671642 Z" id="Shape" stroke="url(#linearGradient-6)" stroke-width="0.5"></path>
            </g>
            <path d="M-0.165012407,10.7910448 L12.3759305,0.67761194 L14.8841191,16.5373134 L-0.165012407,10.7910448 L-0.165012407,10.7910448 Z" id="Shape-2" stroke="url(#linearGradient-5)" stroke-width="0.5" sketch:type="MSShapeGroup"></path>
        </g>
    </g>
</svg>