<?xml version="1.0" encoding="UTF-8" standalone="no"?>
<svg width="2487px" height="2146px" viewBox="0 0 2487 2146" version="1.1" xmlns="http://www.w3.org/2000/svg" xmlns:xlink="http://www.w3.org/1999/xlink" xmlns:sketch="http://www.bohemiancoding.com/sketch/ns">
    <!-- Generator: Sketch 3.0.4 (8054) - http://www.bohemiancoding.com/sketch -->
    <title>Group</title>
    <desc>Created with Sketch.</desc>
    <defs>
        <linearGradient x1="77.5305966%" y1="150.133602%" x2="-72.981264%" y2="44.899773%" id="linearGradient-1">
            <stop stop-color="#27FFD4" stop-opacity="0" offset="0%"></stop>
            <stop stop-color="#27FFD4" offset="100%"></stop>
        </linearGradient>
    </defs>
    <g id="Page-1" stroke="none" stroke-width="1" fill="none" fill-rule="evenodd" sketch:type="MSPage">
        <path d="M794.631581,1688.83824 L362.717973,1871.2358 L420.306454,1408.07969 L794.631581,1688.83824 L794.631581,1688.83824 Z" id="Shape" stroke="url(#linearGradient-1)" stroke-width="0.5" sketch:type="MSShapeGroup" transform="translate(578.674777, 1642.045146) rotate(-105.000000) translate(-578.674777, -1642.045146) "></path>
        <path d="M900.122062,1493.19794 L579.546184,1152.27685 L1036.4148,1048.18609 L900.122062,1493.19794 L900.122062,1493.19794 Z" id="Shape" stroke="url(#linearGradient-1)" stroke-width="0.5" sketch:type="MSShapeGroup" transform="translate(809.900108, 1272.601941) rotate(-105.000000) translate(-809.900108, -1272.601941) "></path>
        <path d="M796.718264,1421.99609 L830.311545,1888.01708 L408.955824,1682.70045 L796.718264,1421.99609 L796.718264,1421.99609 Z" id="Shape" stroke="url(#linearGradient-1)" stroke-width="0.5" sketch:type="MSShapeGroup" transform="translate(620.113588, 1655.961545) rotate(-105.000000) translate(-620.113588, -1655.961545) "></path>
        <path d="M695.364376,1491.47163 L978.507742,1863.90644 L513.000853,1920.24914 L695.364376,1491.47163 L695.364376,1491.47163 Z" id="Shape" stroke="url(#linearGradient-1)" stroke-width="0.5" sketch:type="MSShapeGroup" transform="translate(748.153817, 1706.337867) rotate(-105.000000) translate(-748.153817, -1706.337867) "></path>
        <path d="M652.203656,1651.08101 L935.347021,2023.51581 L469.840132,2079.85852 L652.203656,1651.08101 L652.203656,1651.08101 Z" id="Shape" stroke="url(#linearGradient-1)" stroke-width="0.5" sketch:type="MSShapeGroup" transform="translate(704.993097, 1865.947241) rotate(-355.000000) translate(-704.993097, -1865.947241) "></path>
        <path d="M654.148638,1622.63965 L1018.87568,1328.51165 L1091.82109,1789.75784 L654.148638,1622.63965 L654.148638,1622.63965 Z" id="Shape" stroke="url(#linearGradient-1)" stroke-width="0.5" sketch:type="MSShapeGroup" transform="translate(874.904482, 1557.702304) rotate(-105.000000) translate(-874.904482, -1557.702304) "></path>
        <path d="M246.311822,1438.51046 L521.776723,1060.34588 L711.818711,1487.21347 L246.311822,1438.51046 L246.311822,1438.51046 Z" id="Shape" stroke="url(#linearGradient-1)" stroke-width="0.5" sketch:type="MSShapeGroup" transform="translate(481.464786, 1275.212117) rotate(-59.000000) translate(-481.464786, -1275.212117) "></path>
        <path d="M301.889972,1509.01214 L577.354873,1130.84756 L767.396861,1557.71515 L301.889972,1509.01214 L301.889972,1509.01214 Z" id="Shape" stroke="url(#linearGradient-1)" stroke-width="0.5" sketch:type="MSShapeGroup" transform="translate(537.042936, 1345.713800) rotate(-353.000000) translate(-537.042936, -1345.713800) "></path>
        <path d="M754.304094,1953.92417 L1119.03114,1659.79617 L1191.97655,2121.04235 L754.304094,1953.92417 L754.304094,1953.92417 Z" id="Shape-2" stroke="url(#linearGradient-1)" stroke-width="0.5" sketch:type="MSShapeGroup" transform="translate(975.059938, 1888.986818) rotate(-105.000000) translate(-975.059938, -1888.986818) "></path>
        <path d="M1327.12415,1446.77077 L895.210546,1629.16833 L952.799027,1166.01222 L1327.12415,1446.77077 L1327.12415,1446.77077 Z" id="Shape" stroke="url(#linearGradient-1)" stroke-width="0.5" sketch:type="MSShapeGroup" transform="translate(1111.167350, 1399.977677) rotate(-105.000000) translate(-1111.167350, -1399.977677) "></path>
        <path d="M1432.61464,1251.13047 L1112.03876,910.209381 L1568.90737,806.118627 L1432.61464,1251.13047 L1432.61464,1251.13047 Z" id="Shape" stroke="url(#linearGradient-1)" stroke-width="0.5" sketch:type="MSShapeGroup" transform="translate(1342.392682, 1030.534473) rotate(-105.000000) translate(-1342.392682, -1030.534473) "></path>
        <path d="M1329.21084,1179.92862 L1362.80412,1645.94961 L941.448398,1440.63299 L1329.21084,1179.92862 L1329.21084,1179.92862 Z" id="Shape" stroke="url(#linearGradient-1)" stroke-width="0.5" sketch:type="MSShapeGroup" transform="translate(1152.606162, 1413.894077) rotate(-105.000000) translate(-1152.606162, -1413.894077) "></path>
        <path d="M1227.85695,1249.40416 L1511.00032,1621.83897 L1045.49343,1678.18167 L1227.85695,1249.40416 L1227.85695,1249.40416 Z" id="Shape" stroke="url(#linearGradient-1)" stroke-width="0.5" sketch:type="MSShapeGroup" transform="translate(1280.646391, 1464.270399) rotate(-105.000000) translate(-1280.646391, -1464.270399) "></path>
        <path d="M1193.19838,1547.53295 L1476.34175,1919.96776 L1010.83486,1976.31046 L1193.19838,1547.53295 L1193.19838,1547.53295 Z" id="Shape" stroke="url(#linearGradient-1)" stroke-width="0.5" sketch:type="MSShapeGroup" transform="translate(1245.987825, 1762.399188) rotate(-39.000000) translate(-1245.987825, -1762.399188) "></path>
        <path d="M1184.69623,1409.01354 L1467.83959,1781.44835 L1002.33271,1837.79105 L1184.69623,1409.01354 L1184.69623,1409.01354 Z" id="Shape" stroke="url(#linearGradient-1)" stroke-width="0.5" sketch:type="MSShapeGroup" transform="translate(1237.485670, 1623.879773) rotate(-355.000000) translate(-1237.485670, -1623.879773) "></path>
        <path d="M1186.64121,1380.57219 L1551.36826,1086.44418 L1624.31367,1547.69037 L1186.64121,1380.57219 L1186.64121,1380.57219 Z" id="Shape" stroke="url(#linearGradient-1)" stroke-width="0.5" sketch:type="MSShapeGroup" transform="translate(1407.397055, 1315.634835) rotate(-105.000000) translate(-1407.397055, -1315.634835) "></path>
        <path d="M778.804395,1196.44299 L1054.2693,818.278413 L1244.31128,1245.146 L778.804395,1196.44299 L778.804395,1196.44299 Z" id="Shape" stroke="url(#linearGradient-1)" stroke-width="0.5" sketch:type="MSShapeGroup" transform="translate(1013.957360, 1033.144649) rotate(-59.000000) translate(-1013.957360, -1033.144649) "></path>
        <path d="M834.382545,1266.94467 L1109.84745,888.780096 L1299.88943,1315.64768 L834.382545,1266.94467 L834.382545,1266.94467 Z" id="Shape" stroke="url(#linearGradient-1)" stroke-width="0.5" sketch:type="MSShapeGroup" transform="translate(1069.535510, 1103.646331) rotate(-353.000000) translate(-1069.535510, -1103.646331) "></path>
        <path d="M1286.79667,1711.8567 L1651.52371,1417.7287 L1724.46912,1878.97488 L1286.79667,1711.8567 L1286.79667,1711.8567 Z" id="Shape-2" stroke="url(#linearGradient-1)" stroke-width="0.5" sketch:type="MSShapeGroup" transform="translate(1507.552512, 1646.919350) rotate(-105.000000) translate(-1507.552512, -1646.919350) "></path>
        <path d="M583.609772,723.56377 L151.696163,905.96133 L209.284644,442.805223 L583.609772,723.56377 L583.609772,723.56377 Z" id="Shape" stroke="url(#linearGradient-1)" stroke-width="0.5" sketch:type="MSShapeGroup" transform="translate(367.652967, 676.770679) rotate(-105.000000) translate(-367.652967, -676.770679) "></path>
        <path d="M689.100252,527.923476 L368.524374,187.002382 L825.392991,82.9116283 L689.100252,527.923476 L689.100252,527.923476 Z" id="Shape" stroke="url(#linearGradient-1)" stroke-width="0.5" sketch:type="MSShapeGroup" transform="translate(598.878299, 307.327474) rotate(-105.000000) translate(-598.878299, -307.327474) "></path>
        <path d="M585.696454,456.721622 L619.289735,922.742613 L197.934015,717.425988 L585.696454,456.721622 L585.696454,456.721622 Z" id="Shape" stroke="url(#linearGradient-1)" stroke-width="0.5" sketch:type="MSShapeGroup" transform="translate(409.091779, 690.687078) rotate(-105.000000) translate(-409.091779, -690.687078) "></path>
        <path d="M484.342567,526.197165 L767.485932,898.631973 L301.979043,954.974675 L484.342567,526.197165 L484.342567,526.197165 Z" id="Shape" stroke="url(#linearGradient-1)" stroke-width="0.5" sketch:type="MSShapeGroup" transform="translate(537.132008, 741.063400) rotate(-105.000000) translate(-537.132008, -741.063400) "></path>
        <path d="M449.684001,824.325954 L732.827366,1196.76076 L267.320477,1253.10346 L449.684001,824.325954 L449.684001,824.325954 Z" id="Shape" stroke="url(#linearGradient-1)" stroke-width="0.5" sketch:type="MSShapeGroup" transform="translate(502.473442, 1039.192189) rotate(-39.000000) translate(-502.473442, -1039.192189) "></path>
        <path d="M441.181846,685.806539 L724.325212,1058.24135 L258.818323,1114.58405 L441.181846,685.806539 L441.181846,685.806539 Z" id="Shape" stroke="url(#linearGradient-1)" stroke-width="0.5" sketch:type="MSShapeGroup" transform="translate(493.971288, 900.672774) rotate(-355.000000) translate(-493.971288, -900.672774) "></path>
        <path d="M443.126828,657.365188 L807.853875,363.237186 L880.799285,824.483371 L443.126828,657.365188 L443.126828,657.365188 Z" id="Shape" stroke="url(#linearGradient-1)" stroke-width="0.5" sketch:type="MSShapeGroup" transform="translate(663.882673, 592.427837) rotate(-105.000000) translate(-663.882673, -592.427837) "></path>
        <path d="M35.2900124,473.235989 L310.754914,95.0714148 L500.796901,521.939003 L35.2900124,473.235989 L35.2900124,473.235989 Z" id="Shape" stroke="url(#linearGradient-1)" stroke-width="0.5" sketch:type="MSShapeGroup" transform="translate(270.442977, 309.937650) rotate(-59.000000) translate(-270.442977, -309.937650) "></path>
        <path d="M90.8681624,543.737672 L366.333064,165.573098 L556.375051,592.440686 L90.8681624,543.737672 L90.8681624,543.737672 Z" id="Shape" stroke="url(#linearGradient-1)" stroke-width="0.5" sketch:type="MSShapeGroup" transform="translate(326.021127, 380.439333) rotate(-353.000000) translate(-326.021127, -380.439333) "></path>
        <path d="M543.282284,988.649703 L908.009331,694.5217 L980.954741,1155.76789 L543.282284,988.649703 L543.282284,988.649703 Z" id="Shape-2" stroke="url(#linearGradient-1)" stroke-width="0.5" sketch:type="MSShapeGroup" transform="translate(764.038129, 923.712351) rotate(-105.000000) translate(-764.038129, -923.712351) "></path>
        <path d="M1425.22298,528.044237 L993.309371,710.441797 L1050.89785,247.285689 L1425.22298,528.044237 L1425.22298,528.044237 Z" id="Shape" stroke="url(#linearGradient-1)" stroke-width="0.5" sketch:type="MSShapeGroup" transform="translate(1209.266175, 481.251146) rotate(-285.000000) translate(-1209.266175, -481.251146) "></path>
        <path d="M1068.2628,1071.29035 L747.68692,730.369258 L1204.55554,626.278504 L1068.2628,1071.29035 L1068.2628,1071.29035 Z" id="Shape" stroke="url(#linearGradient-1)" stroke-width="0.5" sketch:type="MSShapeGroup" transform="translate(978.040844, 850.694350) rotate(-285.000000) translate(-978.040844, -850.694350) "></path>
        <path d="M1344.43204,233.36929 L1378.02532,699.390281 L956.6696,494.073656 L1344.43204,233.36929 L1344.43204,233.36929 Z" id="Shape" stroke="url(#linearGradient-1)" stroke-width="0.5" sketch:type="MSShapeGroup" transform="translate(1167.827364, 467.334746) rotate(-285.000000) translate(-1167.827364, -467.334746) "></path>
        <path d="M986.997694,202.092189 L1270.14106,574.526997 L804.634171,630.869699 L986.997694,202.092189 L986.997694,202.092189 Z" id="Shape" stroke="url(#linearGradient-1)" stroke-width="0.5" sketch:type="MSShapeGroup" transform="translate(1039.787135, 416.958424) rotate(-285.000000) translate(-1039.787135, -416.958424) "></path>
        <path d="M1308.85624,465.694158 L843.349348,522.03686 L1025.71287,93.2593494 L1308.85624,465.694158 Z" id="Shape" stroke="url(#linearGradient-1)" stroke-width="0.5" sketch:type="MSShapeGroup" transform="translate(1076.349348, 307.759349) rotate(-219.000000) translate(-1076.349348, -307.759349) "></path>
        <path d="M1030.15841,42.4828148 L1313.30178,414.917623 L847.794891,471.260325 L1030.15841,42.4828148 L1030.15841,42.4828148 Z" id="Shape" stroke="url(#linearGradient-1)" stroke-width="0.5" sketch:type="MSShapeGroup" transform="translate(1082.947855, 257.349050) rotate(-175.000000) translate(-1082.947855, -257.349050) "></path>
        <path d="M692.280626,630.531339 L1057.00767,336.403336 L1129.95308,797.649522 L692.280626,630.531339 L692.280626,630.531339 Z" id="Shape" stroke="url(#linearGradient-1)" stroke-width="0.5" sketch:type="MSShapeGroup" transform="translate(913.036470, 565.593988) rotate(-285.000000) translate(-913.036470, -565.593988) "></path>
        <path d="M1071.3232,1011.38251 L1346.7881,633.217939 L1536.83009,1060.08553 L1071.3232,1011.38251 L1071.3232,1011.38251 Z" id="Shape" stroke="url(#linearGradient-1)" stroke-width="0.5" sketch:type="MSShapeGroup" transform="translate(1306.476166, 848.084174) rotate(-239.000000) translate(-1306.476166, -848.084174) "></path>
        <path d="M1015.74505,940.880831 L1291.20995,562.716256 L1481.25194,989.583844 L1015.74505,940.880831 L1015.74505,940.880831 Z" id="Shape" stroke="url(#linearGradient-1)" stroke-width="0.5" sketch:type="MSShapeGroup" transform="translate(1250.898016, 777.582492) rotate(-173.000000) translate(-1250.898016, -777.582492) "></path>
        <path d="M592.12517,299.246824 L956.852217,5.11882195 L1029.79763,466.365008 L592.12517,299.246824 L592.12517,299.246824 Z" id="Shape-2" stroke="url(#linearGradient-1)" stroke-width="0.5" sketch:type="MSShapeGroup" transform="translate(812.881014, 234.309473) rotate(-285.000000) translate(-812.881014, -234.309473) "></path>
        <path d="M373.931839,1604.81745 L-57.9817689,1787.21501 L-0.393287778,1324.0589 L373.931839,1604.81745 L373.931839,1604.81745 Z" id="Shape" stroke="url(#linearGradient-1)" stroke-width="0.5" sketch:type="MSShapeGroup" transform="translate(157.975035, 1558.024358) rotate(-87.000000) translate(-157.975035, -1558.024358) "></path>
        <path d="M582.269576,1498.71155 L261.693698,1157.79046 L718.562314,1053.6997 L582.269576,1498.71155 L582.269576,1498.71155 Z" id="Shape" stroke="url(#linearGradient-1)" stroke-width="0.5" sketch:type="MSShapeGroup" transform="translate(492.047622, 1278.115548) rotate(-87.000000) translate(-492.047622, -1278.115548) "></path>
        <path d="M369.689959,1350.09948 L403.283239,1816.12047 L-18.0724809,1610.80385 L369.689959,1350.09948 L369.689959,1350.09948 Z" id="Shape" stroke="url(#linearGradient-1)" stroke-width="0.5" sketch:type="MSShapeGroup" transform="translate(193.085283, 1584.064937) rotate(-87.000000) translate(-193.085283, -1584.064937) "></path>
        <path d="M246.502196,1456.67604 L529.645562,1829.11085 L64.1386729,1885.45355 L246.502196,1456.67604 L246.502196,1456.67604 Z" id="Shape" stroke="url(#linearGradient-1)" stroke-width="0.5" sketch:type="MSShapeGroup" transform="translate(299.291637, 1671.542273) rotate(-87.000000) translate(-299.291637, -1671.542273) "></path>
        <path d="M399.845638,2017.87163 L-65.6612511,2074.21433 L116.702272,1645.43682 L399.845638,2017.87163 Z" id="Shape" stroke="url(#linearGradient-1)" stroke-width="0.5" sketch:type="MSShapeGroup" transform="translate(167.338749, 1859.936824) rotate(-21.000000) translate(-167.338749, -1859.936824) "></path>
        <path d="M156.131903,1595.13618 L439.275269,1967.57099 L-26.2316203,2023.91369 L156.131903,1595.13618 L156.131903,1595.13618 Z" id="Shape" stroke="url(#linearGradient-1)" stroke-width="0.5" sketch:type="MSShapeGroup" transform="translate(208.921344, 1810.002412) rotate(-337.000000) translate(-208.921344, -1810.002412) "></path>
        <path d="M245.013754,1634.28691 L609.740801,1340.15891 L682.68621,1801.4051 L245.013754,1634.28691 L245.013754,1634.28691 Z" id="Shape" stroke="url(#linearGradient-1)" stroke-width="0.5" sketch:type="MSShapeGroup" transform="translate(465.769598, 1569.349562) rotate(-87.000000) translate(-465.769598, -1569.349562) "></path>
        <path d="M-56.2724842,1342.40422 L219.192417,964.239641 L409.234405,1391.10723 L-56.2724842,1342.40422 L-56.2724842,1342.40422 Z" id="Shape" stroke="url(#linearGradient-1)" stroke-width="0.5" sketch:type="MSShapeGroup" transform="translate(178.880480, 1179.105877) rotate(-41.000000) translate(-178.880480, -1179.105877) "></path>
        <path d="M-25.2007406,1426.62989 L250.264161,1048.46532 L440.306148,1475.33291 L-25.2007406,1426.62989 L-25.2007406,1426.62989 Z" id="Shape" stroke="url(#linearGradient-1)" stroke-width="0.5" sketch:type="MSShapeGroup" transform="translate(209.952224, 1263.331554) rotate(-335.000000) translate(-209.952224, -1263.331554) "></path>
        <path d="M237.894708,1980.30695 L602.621755,1686.17894 L675.567165,2147.42513 L237.894708,1980.30695 L237.894708,1980.30695 Z" id="Shape-2" stroke="url(#linearGradient-1)" stroke-width="0.5" sketch:type="MSShapeGroup" transform="translate(458.650552, 1915.369596) rotate(-87.000000) translate(-458.650552, -1915.369596) "></path>
        <path d="M955.165333,1539.14686 L523.251724,1721.54442 L580.840206,1258.38831 L955.165333,1539.14686 L955.165333,1539.14686 Z" id="Shape" stroke="url(#linearGradient-1)" stroke-width="0.5" sketch:type="MSShapeGroup" transform="translate(739.208529, 1492.353769) rotate(-87.000000) translate(-739.208529, -1492.353769) "></path>
        <path d="M1163.50307,1433.04096 L842.927191,1092.11987 L1299.79581,988.029113 L1163.50307,1433.04096 L1163.50307,1433.04096 Z" id="Shape" stroke="url(#linearGradient-1)" stroke-width="0.5" sketch:type="MSShapeGroup" transform="translate(1073.281115, 1212.444959) rotate(-87.000000) translate(-1073.281115, -1212.444959) "></path>
        <path d="M950.923452,1284.42889 L984.516733,1750.44988 L563.161012,1545.13326 L950.923452,1284.42889 L950.923452,1284.42889 Z" id="Shape" stroke="url(#linearGradient-1)" stroke-width="0.5" sketch:type="MSShapeGroup" transform="translate(774.318777, 1518.394349) rotate(-87.000000) translate(-774.318777, -1518.394349) "></path>
        <path d="M827.73569,1391.00545 L1110.87906,1763.44026 L645.372166,1819.78296 L827.73569,1391.00545 L827.73569,1391.00545 Z" id="Shape" stroke="url(#linearGradient-1)" stroke-width="0.5" sketch:type="MSShapeGroup" transform="translate(880.525131, 1605.871685) rotate(-87.000000) translate(-880.525131, -1605.871685) "></path>
        <path d="M702.646573,1663.83269 L985.789938,2036.2675 L520.283049,2092.6102 L702.646573,1663.83269 L702.646573,1663.83269 Z" id="Shape" stroke="url(#linearGradient-1)" stroke-width="0.5" sketch:type="MSShapeGroup" transform="translate(755.436014, 1878.698926) rotate(-21.000000) translate(-755.436014, -1878.698926) "></path>
        <path d="M737.365397,1529.46559 L1020.50876,1901.9004 L555.001873,1958.2431 L737.365397,1529.46559 L737.365397,1529.46559 Z" id="Shape" stroke="url(#linearGradient-1)" stroke-width="0.5" sketch:type="MSShapeGroup" transform="translate(790.154838, 1744.331824) rotate(-337.000000) translate(-790.154838, -1744.331824) "></path>
        <path d="M826.247247,1568.61632 L1190.97429,1274.48832 L1263.9197,1735.73451 L826.247247,1568.61632 L826.247247,1568.61632 Z" id="Shape" stroke="url(#linearGradient-1)" stroke-width="0.5" sketch:type="MSShapeGroup" transform="translate(1047.003092, 1503.678973) rotate(-87.000000) translate(-1047.003092, -1503.678973) "></path>
        <path d="M524.961009,1276.73363 L800.42591,898.569052 L990.467898,1325.43664 L524.961009,1276.73363 L524.961009,1276.73363 Z" id="Shape" stroke="url(#linearGradient-1)" stroke-width="0.5" sketch:type="MSShapeGroup" transform="translate(760.113974, 1113.435288) rotate(-41.000000) translate(-760.113974, -1113.435288) "></path>
        <path d="M556.032753,1360.9593 L831.497654,982.79473 L1021.53964,1409.66232 L556.032753,1360.9593 L556.032753,1360.9593 Z" id="Shape" stroke="url(#linearGradient-1)" stroke-width="0.5" sketch:type="MSShapeGroup" transform="translate(791.185717, 1197.660966) rotate(-335.000000) translate(-791.185717, -1197.660966) "></path>
        <path d="M819.128202,1914.63636 L1183.85525,1620.50836 L1256.80066,2081.75454 L819.128202,1914.63636 L819.128202,1914.63636 Z" id="Shape-2" stroke="url(#linearGradient-1)" stroke-width="0.5" sketch:type="MSShapeGroup" transform="translate(1039.884046, 1849.699007) rotate(-87.000000) translate(-1039.884046, -1849.699007) "></path>
        <path d="M471.524387,621.577553 L39.6107785,803.975113 L97.1992596,340.819005 L471.524387,621.577553 L471.524387,621.577553 Z" id="Shape" stroke="url(#linearGradient-1)" stroke-width="0.5" sketch:type="MSShapeGroup" transform="translate(255.567583, 574.784461) rotate(-87.000000) translate(-255.567583, -574.784461) "></path>
        <path d="M679.862123,515.471653 L359.286245,174.550559 L816.154862,70.4598047 L679.862123,515.471653 L679.862123,515.471653 Z" id="Shape" stroke="url(#linearGradient-1)" stroke-width="0.5" sketch:type="MSShapeGroup" transform="translate(589.640169, 294.875651) rotate(-87.000000) translate(-589.640169, -294.875651) "></path>
        <path d="M467.282506,366.859584 L500.875787,832.880575 L79.5200665,627.56395 L467.282506,366.859584 L467.282506,366.859584 Z" id="Shape" stroke="url(#linearGradient-1)" stroke-width="0.5" sketch:type="MSShapeGroup" transform="translate(290.677831, 600.825040) rotate(-87.000000) translate(-290.677831, -600.825040) "></path>
        <path d="M344.094744,473.436141 L627.238109,845.870949 L161.73122,902.213651 L344.094744,473.436141 L344.094744,473.436141 Z" id="Shape" stroke="url(#linearGradient-1)" stroke-width="0.5" sketch:type="MSShapeGroup" transform="translate(396.884185, 688.302376) rotate(-87.000000) translate(-396.884185, -688.302376) "></path>
        <path d="M219.005627,746.263382 L502.148992,1118.69819 L36.6421033,1175.04089 L219.005627,746.263382 L219.005627,746.263382 Z" id="Shape" stroke="url(#linearGradient-1)" stroke-width="0.5" sketch:type="MSShapeGroup" transform="translate(271.795068, 961.129618) rotate(-21.000000) translate(-271.795068, -961.129618) "></path>
        <path d="M253.724451,611.89628 L536.867816,984.331088 L71.3609272,1040.67379 L253.724451,611.89628 L253.724451,611.89628 Z" id="Shape" stroke="url(#linearGradient-1)" stroke-width="0.5" sketch:type="MSShapeGroup" transform="translate(306.513892, 826.762515) rotate(-337.000000) translate(-306.513892, -826.762515) "></path>
        <path d="M342.606301,651.047016 L707.333348,356.919013 L780.278758,818.165199 L342.606301,651.047016 L342.606301,651.047016 Z" id="Shape" stroke="url(#linearGradient-1)" stroke-width="0.5" sketch:type="MSShapeGroup" transform="translate(563.362146, 586.109665) rotate(-87.000000) translate(-563.362146, -586.109665) "></path>
        <path d="M41.3200632,359.164319 L316.784965,-19.0002558 L506.826952,407.867332 L41.3200632,359.164319 L41.3200632,359.164319 Z" id="Shape" stroke="url(#linearGradient-1)" stroke-width="0.5" sketch:type="MSShapeGroup" transform="translate(276.473028, 195.865980) rotate(-41.000000) translate(-276.473028, -195.865980) "></path>
        <path d="M72.3918068,443.389997 L347.856708,65.2254218 L537.898696,492.09301 L72.3918068,443.389997 L72.3918068,443.389997 Z" id="Shape" stroke="url(#linearGradient-1)" stroke-width="0.5" sketch:type="MSShapeGroup" transform="translate(307.544771, 280.091657) rotate(-335.000000) translate(-307.544771, -280.091657) "></path>
        <path d="M335.487256,997.06705 L700.214303,702.939048 L773.159712,1164.18523 L335.487256,997.06705 L335.487256,997.06705 Z" id="Shape-2" stroke="url(#linearGradient-1)" stroke-width="0.5" sketch:type="MSShapeGroup" transform="translate(556.243100, 932.129699) rotate(-87.000000) translate(-556.243100, -932.129699) "></path>
        <path d="M1332.36497,695.70021 L900.451363,878.09777 L958.039844,414.941662 L1332.36497,695.70021 L1332.36497,695.70021 Z" id="Shape" stroke="url(#linearGradient-1)" stroke-width="0.5" sketch:type="MSShapeGroup" transform="translate(1116.408167, 648.907119) rotate(-267.000000) translate(-1116.408167, -648.907119) "></path>
        <path d="M872.557534,1149.41193 L551.981656,808.490837 L1008.85027,704.400083 L872.557534,1149.41193 L872.557534,1149.41193 Z" id="Shape" stroke="url(#linearGradient-1)" stroke-width="0.5" sketch:type="MSShapeGroup" transform="translate(782.335580, 928.815929) rotate(-267.000000) translate(-782.335580, -928.815929) "></path>
        <path d="M1257.90259,388.901083 L1291.49588,854.922074 L870.140155,649.605449 L1257.90259,388.901083 L1257.90259,388.901083 Z" id="Shape" stroke="url(#linearGradient-1)" stroke-width="0.5" sketch:type="MSShapeGroup" transform="translate(1081.297919, 622.866539) rotate(-267.000000) translate(-1081.297919, -622.866539) "></path>
        <path d="M922.302124,320.522968 L1205.44549,692.957776 L739.9386,749.300478 L922.302124,320.522968 L922.302124,320.522968 Z" id="Shape" stroke="url(#linearGradient-1)" stroke-width="0.5" sketch:type="MSShapeGroup" transform="translate(975.091565, 535.389204) rotate(-267.000000) translate(-975.091565, -535.389204) "></path>
        <path d="M1047.39124,47.6957263 L1330.53461,420.130535 L865.027717,476.473236 L1047.39124,47.6957263 L1047.39124,47.6957263 Z" id="Shape" stroke="url(#linearGradient-1)" stroke-width="0.5" sketch:type="MSShapeGroup" transform="translate(1100.180682, 262.561962) rotate(-201.000000) translate(-1100.180682, -262.561962) "></path>
        <path d="M1012.67242,182.062829 L1295.81578,554.497637 L830.308893,610.840339 L1012.67242,182.062829 L1012.67242,182.062829 Z" id="Shape" stroke="url(#linearGradient-1)" stroke-width="0.5" sketch:type="MSShapeGroup" transform="translate(1065.461858, 396.929064) rotate(-157.000000) translate(-1065.461858, -396.929064) "></path>
        <path d="M587.85776,702.519266 L952.584807,408.391264 L1025.53022,869.63745 L587.85776,702.519266 L587.85776,702.519266 Z" id="Shape" stroke="url(#linearGradient-1)" stroke-width="0.5" sketch:type="MSShapeGroup" transform="translate(808.613604, 637.581915) rotate(-267.000000) translate(-808.613604, -637.581915) "></path>
        <path d="M860.349757,1191.12394 L1135.81466,812.959365 L1325.85665,1239.82695 L860.349757,1191.12394 L860.349757,1191.12394 Z" id="Shape" stroke="url(#linearGradient-1)" stroke-width="0.5" sketch:type="MSShapeGroup" transform="translate(1095.502722, 1027.825600) rotate(-221.000000) translate(-1095.502722, -1027.825600) "></path>
        <path d="M829.278014,1106.89826 L1104.74292,728.733687 L1294.7849,1155.60127 L829.278014,1106.89826 L829.278014,1106.89826 Z" id="Shape" stroke="url(#linearGradient-1)" stroke-width="0.5" sketch:type="MSShapeGroup" transform="translate(1064.430978, 943.599922) rotate(-155.000000) translate(-1064.430978, -943.599922) "></path>
        <path d="M594.976805,356.499232 L959.703853,62.3712297 L1032.64926,523.617415 L594.976805,356.499232 L594.976805,356.499232 Z" id="Shape-2" stroke="url(#linearGradient-1)" stroke-width="0.5" sketch:type="MSShapeGroup" transform="translate(815.732650, 291.561881) rotate(-267.000000) translate(-815.732650, -291.561881) "></path>
        <path d="M1567.68815,1652.4191 L1135.77454,1834.81666 L1193.36302,1371.66055 L1567.68815,1652.4191 L1567.68815,1652.4191 Z" id="Shape" stroke="url(#linearGradient-1)" stroke-width="0.5" sketch:type="MSShapeGroup" transform="translate(1351.731346, 1605.626010) rotate(-93.000000) translate(-1351.731346, -1605.626010) "></path>
        <path d="M1744.93736,1512.92648 L1424.36149,1172.00538 L1881.2301,1067.91463 L1744.93736,1512.92648 L1744.93736,1512.92648 Z" id="Shape" stroke="url(#linearGradient-1)" stroke-width="0.5" sketch:type="MSShapeGroup" transform="translate(1654.715410, 1292.330475) rotate(-93.000000) translate(-1654.715410, -1292.330475) "></path>
        <path d="M1565.97591,1393.88846 L1599.56919,1859.90945 L1178.21347,1654.59282 L1565.97591,1393.88846 L1565.97591,1393.88846 Z" id="Shape" stroke="url(#linearGradient-1)" stroke-width="0.5" sketch:type="MSShapeGroup" transform="translate(1389.371238, 1627.853916) rotate(-93.000000) translate(-1389.371238, -1627.853916) "></path>
        <path d="M1451.35021,1488.88422 L1734.49358,1861.31903 L1268.98669,1917.66173 L1451.35021,1488.88422 L1451.35021,1488.88422 Z" id="Shape" stroke="url(#linearGradient-1)" stroke-width="0.5" sketch:type="MSShapeGroup" transform="translate(1504.139654, 1703.750454) rotate(-93.000000) translate(-1504.139654, -1703.750454) "></path>
        <path d="M1355.46456,1773.29226 L1638.60792,2145.72707 L1173.10104,2202.06977 L1355.46456,1773.29226 L1355.46456,1773.29226 Z" id="Shape" stroke="url(#linearGradient-1)" stroke-width="0.5" sketch:type="MSShapeGroup" transform="translate(1408.254000, 1988.158493) rotate(-27.000000) translate(-1408.254000, -1988.158493) "></path>
        <path d="M1375.948,1636.03213 L1659.09137,2008.46694 L1193.58448,2064.80964 L1375.948,1636.03213 L1375.948,1636.03213 Z" id="Shape" stroke="url(#linearGradient-1)" stroke-width="0.5" sketch:type="MSShapeGroup" transform="translate(1428.737444, 1850.898362) rotate(-343.000000) translate(-1428.737444, -1850.898362) "></path>
        <path d="M1438.26774,1649.65323 L1802.99479,1355.52523 L1875.9402,1816.77141 L1438.26774,1649.65323 L1438.26774,1649.65323 Z" id="Shape" stroke="url(#linearGradient-1)" stroke-width="0.5" sketch:type="MSShapeGroup" transform="translate(1659.023584, 1584.715880) rotate(-93.000000) translate(-1659.023584, -1584.715880) "></path>
        <path d="M1097.76154,1389.89641 L1373.22644,1011.73183 L1563.26843,1438.59942 L1097.76154,1389.89641 L1097.76154,1389.89641 Z" id="Shape" stroke="url(#linearGradient-1)" stroke-width="0.5" sketch:type="MSShapeGroup" transform="translate(1332.914502, 1226.598069) rotate(-47.000000) translate(-1332.914502, -1226.598069) "></path>
        <path d="M1137.46705,1470.41281 L1412.93195,1092.24823 L1602.97394,1519.11582 L1137.46705,1470.41281 L1137.46705,1470.41281 Z" id="Shape" stroke="url(#linearGradient-1)" stroke-width="0.5" sketch:type="MSShapeGroup" transform="translate(1372.620012, 1307.114468) rotate(-341.000000) translate(-1372.620012, -1307.114468) "></path>
        <path d="M1467.35664,1994.52187 L1832.08368,1700.39387 L1905.02909,2161.64006 L1467.35664,1994.52187 L1467.35664,1994.52187 Z" id="Shape-2" stroke="url(#linearGradient-1)" stroke-width="0.5" sketch:type="MSShapeGroup" transform="translate(1688.112479, 1929.584523) rotate(-93.000000) translate(-1688.112479, -1929.584523) "></path>
        <path d="M2138.87314,1526.35282 L1706.95953,1708.75038 L1764.54801,1245.59427 L2138.87314,1526.35282 L2138.87314,1526.35282 Z" id="Shape" stroke="url(#linearGradient-1)" stroke-width="0.5" sketch:type="MSShapeGroup" transform="translate(1922.916335, 1479.559727) rotate(-93.000000) translate(-1922.916335, -1479.559727) "></path>
        <path d="M2316.12235,1386.86019 L1995.54648,1045.9391 L2452.41509,941.848347 L2316.12235,1386.86019 L2316.12235,1386.86019 Z" id="Shape" stroke="url(#linearGradient-1)" stroke-width="0.5" sketch:type="MSShapeGroup" transform="translate(2225.900400, 1166.264193) rotate(-93.000000) translate(-2225.900400, -1166.264193) "></path>
        <path d="M2137.1609,1267.82218 L2170.75418,1733.84317 L1749.39846,1528.52654 L2137.1609,1267.82218 L2137.1609,1267.82218 Z" id="Shape" stroke="url(#linearGradient-1)" stroke-width="0.5" sketch:type="MSShapeGroup" transform="translate(1960.556227, 1501.787633) rotate(-93.000000) translate(-1960.556227, -1501.787633) "></path>
        <path d="M2022.5352,1362.81794 L2305.67857,1735.25275 L1840.17168,1791.59545 L2022.5352,1362.81794 L2022.5352,1362.81794 Z" id="Shape" stroke="url(#linearGradient-1)" stroke-width="0.5" sketch:type="MSShapeGroup" transform="translate(2075.324644, 1577.684172) rotate(-93.000000) translate(-2075.324644, -1577.684172) "></path>
        <path d="M1926.64955,1647.22598 L2209.79291,2019.66078 L1744.28603,2076.00349 L1926.64955,1647.22598 L1926.64955,1647.22598 Z" id="Shape" stroke="url(#linearGradient-1)" stroke-width="0.5" sketch:type="MSShapeGroup" transform="translate(1979.438990, 1862.092211) rotate(-27.000000) translate(-1979.438990, -1862.092211) "></path>
        <path d="M1947.13299,1509.96584 L2230.27636,1882.40065 L1764.76947,1938.74335 L1947.13299,1509.96584 L1947.13299,1509.96584 Z" id="Shape" stroke="url(#linearGradient-1)" stroke-width="0.5" sketch:type="MSShapeGroup" transform="translate(1999.922434, 1724.832080) rotate(-343.000000) translate(-1999.922434, -1724.832080) "></path>
        <path d="M2009.45273,1523.58695 L2374.17978,1229.45895 L2447.12519,1690.70513 L2009.45273,1523.58695 L2009.45273,1523.58695 Z" id="Shape" stroke="url(#linearGradient-1)" stroke-width="0.5" sketch:type="MSShapeGroup" transform="translate(2230.208574, 1458.649598) rotate(-93.000000) translate(-2230.208574, -1458.649598) "></path>
        <path d="M1668.94653,1263.83013 L1944.41143,885.665551 L2134.45342,1312.53314 L1668.94653,1263.83013 L1668.94653,1263.83013 Z" id="Shape" stroke="url(#linearGradient-1)" stroke-width="0.5" sketch:type="MSShapeGroup" transform="translate(1904.099492, 1100.531787) rotate(-47.000000) translate(-1904.099492, -1100.531787) "></path>
        <path d="M1708.65204,1344.34653 L1984.11694,966.18195 L2174.15893,1393.04954 L1708.65204,1344.34653 L1708.65204,1344.34653 Z" id="Shape" stroke="url(#linearGradient-1)" stroke-width="0.5" sketch:type="MSShapeGroup" transform="translate(1943.805002, 1181.048186) rotate(-341.000000) translate(-1943.805002, -1181.048186) "></path>
        <path d="M2038.54162,1868.45559 L2403.26867,1574.32759 L2476.21408,2035.57378 L2038.54162,1868.45559 L2038.54162,1868.45559 Z" id="Shape-2" stroke="url(#linearGradient-1)" stroke-width="0.5" sketch:type="MSShapeGroup" transform="translate(2259.297469, 1803.518241) rotate(-93.000000) translate(-2259.297469, -1803.518241) "></path>
        <path d="M1561.96952,664.364296 L1130.05591,846.761856 L1187.64439,383.605748 L1561.96952,664.364296 L1561.96952,664.364296 Z" id="Shape" stroke="url(#linearGradient-1)" stroke-width="0.5" sketch:type="MSShapeGroup" transform="translate(1346.012715, 617.571205) rotate(-93.000000) translate(-1346.012715, -617.571205) "></path>
        <path d="M1739.21873,524.871672 L1418.64286,183.950578 L1875.51147,79.8598239 L1739.21873,524.871672 L1739.21873,524.871672 Z" id="Shape" stroke="url(#linearGradient-1)" stroke-width="0.5" sketch:type="MSShapeGroup" transform="translate(1648.996780, 304.275670) rotate(-93.000000) translate(-1648.996780, -304.275670) "></path>
        <path d="M1560.25728,405.833654 L1593.85056,871.854645 L1172.49484,666.53802 L1560.25728,405.833654 L1560.25728,405.833654 Z" id="Shape" stroke="url(#linearGradient-1)" stroke-width="0.5" sketch:type="MSShapeGroup" transform="translate(1383.652607, 639.799111) rotate(-93.000000) translate(-1383.652607, -639.799111) "></path>
        <path d="M1445.63158,500.829414 L1728.77495,873.264222 L1263.26806,929.606924 L1445.63158,500.829414 L1445.63158,500.829414 Z" id="Shape" stroke="url(#linearGradient-1)" stroke-width="0.5" sketch:type="MSShapeGroup" transform="translate(1498.421024, 715.695650) rotate(-93.000000) translate(-1498.421024, -715.695650) "></path>
        <path d="M1349.74593,785.237453 L1632.88929,1157.67226 L1167.38241,1214.01496 L1349.74593,785.237453 L1349.74593,785.237453 Z" id="Shape" stroke="url(#linearGradient-1)" stroke-width="0.5" sketch:type="MSShapeGroup" transform="translate(1402.535370, 1000.103688) rotate(-27.000000) translate(-1402.535370, -1000.103688) "></path>
        <path d="M1370.22937,647.977322 L1653.37274,1020.41213 L1187.86585,1076.75483 L1370.22937,647.977322 L1370.22937,647.977322 Z" id="Shape" stroke="url(#linearGradient-1)" stroke-width="0.5" sketch:type="MSShapeGroup" transform="translate(1423.018814, 862.843557) rotate(-343.000000) translate(-1423.018814, -862.843557) "></path>
        <path d="M1432.54911,661.598426 L1797.27616,367.470424 L1870.22157,828.716609 L1432.54911,661.598426 L1432.54911,661.598426 Z" id="Shape" stroke="url(#linearGradient-1)" stroke-width="0.5" sketch:type="MSShapeGroup" transform="translate(1653.304954, 596.661075) rotate(-93.000000) translate(-1653.304954, -596.661075) "></path>
        <path d="M1092.04291,401.841603 L1367.50781,23.6770287 L1557.5498,450.544617 L1092.04291,401.841603 L1092.04291,401.841603 Z" id="Shape" stroke="url(#linearGradient-1)" stroke-width="0.5" sketch:type="MSShapeGroup" transform="translate(1327.195872, 238.543264) rotate(-47.000000) translate(-1327.195872, -238.543264) "></path>
        <path d="M1131.74842,482.358002 L1407.21332,104.193428 L1597.25531,531.061016 L1131.74842,482.358002 L1131.74842,482.358002 Z" id="Shape" stroke="url(#linearGradient-1)" stroke-width="0.5" sketch:type="MSShapeGroup" transform="translate(1366.901382, 319.059663) rotate(-341.000000) translate(-1366.901382, -319.059663) "></path>
        <path d="M1461.638,1006.46707 L1826.36505,712.339067 L1899.31046,1173.58525 L1461.638,1006.46707 L1461.638,1006.46707 Z" id="Shape-2" stroke="url(#linearGradient-1)" stroke-width="0.5" sketch:type="MSShapeGroup" transform="translate(1682.393849, 941.529718) rotate(-93.000000) translate(-1682.393849, -941.529718) "></path>
        <path d="M2425.84226,648.098558 L1993.92865,830.496118 L2051.51713,367.340011 L2425.84226,648.098558 L2425.84226,648.098558 Z" id="Shape" stroke="url(#linearGradient-1)" stroke-width="0.5" sketch:type="MSShapeGroup" transform="translate(2209.885452, 601.305467) rotate(-273.000000) translate(-2209.885452, -601.305467) "></path>
        <path d="M1997.12334,1135.197 L1676.54746,794.27591 L2133.41608,690.185156 L1997.12334,1135.197 L1997.12334,1135.197 Z" id="Shape" stroke="url(#linearGradient-1)" stroke-width="0.5" sketch:type="MSShapeGroup" transform="translate(1906.901388, 914.601002) rotate(-273.000000) translate(-1906.901388, -914.601002) "></path>
        <path d="M2348.85024,345.112105 L2382.44352,811.133096 L1961.0878,605.816471 L2348.85024,345.112105 L2348.85024,345.112105 Z" id="Shape" stroke="url(#linearGradient-1)" stroke-width="0.5" sketch:type="MSShapeGroup" transform="translate(2172.245560, 579.077561) rotate(-273.000000) translate(-2172.245560, -579.077561) "></path>
        <path d="M2004.6877,288.314787 L2287.83107,660.749595 L1822.32418,717.092297 L2004.6877,288.314787 L2004.6877,288.314787 Z" id="Shape" stroke="url(#linearGradient-1)" stroke-width="0.5" sketch:type="MSShapeGroup" transform="translate(2057.477144, 503.181022) rotate(-273.000000) translate(-2057.477144, -503.181022) "></path>
        <path d="M2100.57336,3.90674803 L2383.71672,376.341556 L1918.20983,432.684258 L2100.57336,3.90674803 L2100.57336,3.90674803 Z" id="Shape" stroke="url(#linearGradient-1)" stroke-width="0.5" sketch:type="MSShapeGroup" transform="translate(2153.362797, 218.772984) rotate(-207.000000) translate(-2153.362797, -218.772984) "></path>
        <path d="M2080.08991,141.166879 L2363.23328,513.601687 L1897.72639,569.944389 L2080.08991,141.166879 L2080.08991,141.166879 Z" id="Shape" stroke="url(#linearGradient-1)" stroke-width="0.5" sketch:type="MSShapeGroup" transform="translate(2132.879354, 356.033115) rotate(-163.000000) translate(-2132.879354, -356.033115) "></path>
        <path d="M1681.83737,687.152948 L2046.56442,393.024946 L2119.50983,854.271131 L1681.83737,687.152948 L1681.83737,687.152948 Z" id="Shape" stroke="url(#linearGradient-1)" stroke-width="0.5" sketch:type="MSShapeGroup" transform="translate(1902.593214, 622.215597) rotate(-273.000000) translate(-1902.593214, -622.215597) "></path>
        <path d="M1993.54933,1143.63175 L2269.01423,765.467172 L2459.05622,1192.33476 L1993.54933,1143.63175 L1993.54933,1143.63175 Z" id="Shape" stroke="url(#linearGradient-1)" stroke-width="0.5" sketch:type="MSShapeGroup" transform="translate(2228.702296, 980.333408) rotate(-227.000000) translate(-2228.702296, -980.333408) "></path>
        <path d="M1953.84382,1063.11535 L2229.30872,684.950773 L2419.35071,1111.81836 L1953.84382,1063.11535 L1953.84382,1063.11535 Z" id="Shape" stroke="url(#linearGradient-1)" stroke-width="0.5" sketch:type="MSShapeGroup" transform="translate(2188.996786, 899.817009) rotate(-161.000000) translate(-2188.996786, -899.817009) "></path>
        <path d="M1652.74847,342.284305 L2017.47552,48.1563025 L2090.42093,509.402488 L1652.74847,342.284305 L1652.74847,342.284305 Z" id="Shape-2" stroke="url(#linearGradient-1)" stroke-width="0.5" sketch:type="MSShapeGroup" transform="translate(1873.504318, 277.346954) rotate(-273.000000) translate(-1873.504318, -277.346954) "></path>
        <path d="M1018.44088,483.523035 L586.527276,665.920595 L644.115757,202.764487 L1018.44088,483.523035 L1018.44088,483.523035 Z" id="Shape" stroke="url(#linearGradient-1)" stroke-width="0.5" sketch:type="MSShapeGroup"></path>
        <path d="M1189.71525,976.291402 L869.139369,635.370308 L1326.00799,531.279554 L1189.71525,976.291402 L1189.71525,976.291402 Z" id="Shape" stroke="url(#linearGradient-1)" stroke-width="0.5" sketch:type="MSShapeGroup"></path>
        <path d="M954.921392,239.189476 L988.514673,705.210467 L567.158953,499.893842 L954.921392,239.189476 L954.921392,239.189476 Z" id="Shape" stroke="url(#linearGradient-1)" stroke-width="0.5" sketch:type="MSShapeGroup"></path>
        <path d="M643.728236,368.927709 L926.871601,741.362518 L461.364712,797.70522 L643.728236,368.927709 L643.728236,368.927709 Z" id="Shape" stroke="url(#linearGradient-1)" stroke-width="0.5" sketch:type="MSShapeGroup"></path>
        <path d="M364.728236,258.288697 L647.871601,630.723506 L182.364712,687.066208 L364.728236,258.288697 L364.728236,258.288697 Z" id="Shape" stroke="url(#linearGradient-1)" stroke-width="0.5" sketch:type="MSShapeGroup" transform="translate(417.517677, 473.154933) rotate(-294.000000) translate(-417.517677, -473.154933) "></path>
        <path d="M500.728236,285.927709 L783.871601,658.362518 L318.364712,714.70522 L500.728236,285.927709 L500.728236,285.927709 Z" id="Shape" stroke="url(#linearGradient-1)" stroke-width="0.5" sketch:type="MSShapeGroup" transform="translate(553.517677, 500.793945) rotate(-250.000000) translate(-553.517677, -500.793945) "></path>
        <path d="M586.527276,809.632752 L951.254323,515.504749 L1024.19973,976.750935 L586.527276,809.632752 L586.527276,809.632752 Z" id="Shape" stroke="url(#linearGradient-1)" stroke-width="0.5" sketch:type="MSShapeGroup"></path>
        <path d="M946.824409,601.074017 L1222.28931,222.909442 L1412.3313,649.77703 L946.824409,601.074017 L946.824409,601.074017 Z" id="Shape" stroke="url(#linearGradient-1)" stroke-width="0.5" sketch:type="MSShapeGroup" transform="translate(1181.977373, 437.775678) rotate(-314.000000) translate(-1181.977373, -437.775678) "></path>
        <path d="M864.340329,636.511209 L1139.80523,258.346634 L1329.84722,685.214222 L864.340329,636.511209 L864.340329,636.511209 Z" id="Shape" stroke="url(#linearGradient-1)" stroke-width="0.5" sketch:type="MSShapeGroup" transform="translate(1099.493293, 473.212870) rotate(-248.000000) translate(-1099.493293, -473.212870) "></path>
        <path d="M240.608868,820.632752 L605.335915,526.504749 L678.281324,987.750935 L240.608868,820.632752 L240.608868,820.632752 Z" id="Shape-2" stroke="url(#linearGradient-1)" stroke-width="0.5" sketch:type="MSShapeGroup"></path>
        <path d="M1114.44088,1060.52304 L682.527276,1242.9206 L740.115757,779.764487 L1114.44088,1060.52304 L1114.44088,1060.52304 Z" id="Shape" stroke="url(#linearGradient-1)" stroke-width="0.5" sketch:type="MSShapeGroup"></path>
        <path d="M1285.71525,1553.2914 L965.139369,1212.37031 L1422.00799,1108.27955 L1285.71525,1553.2914 L1285.71525,1553.2914 Z" id="Shape" stroke="url(#linearGradient-1)" stroke-width="0.5" sketch:type="MSShapeGroup"></path>
        <path d="M1050.92139,816.189476 L1084.51467,1282.21047 L663.158953,1076.89384 L1050.92139,816.189476 L1050.92139,816.189476 Z" id="Shape" stroke="url(#linearGradient-1)" stroke-width="0.5" sketch:type="MSShapeGroup"></path>
        <path d="M739.728236,945.927709 L1022.8716,1318.36252 L557.364712,1374.70522 L739.728236,945.927709 L739.728236,945.927709 Z" id="Shape" stroke="url(#linearGradient-1)" stroke-width="0.5" sketch:type="MSShapeGroup"></path>
        <path d="M460.728236,835.288697 L743.871601,1207.72351 L278.364712,1264.06621 L460.728236,835.288697 L460.728236,835.288697 Z" id="Shape" stroke="url(#linearGradient-1)" stroke-width="0.5" sketch:type="MSShapeGroup" transform="translate(513.517677, 1050.154933) rotate(-294.000000) translate(-513.517677, -1050.154933) "></path>
        <path d="M596.728236,862.927709 L879.871601,1235.36252 L414.364712,1291.70522 L596.728236,862.927709 L596.728236,862.927709 Z" id="Shape" stroke="url(#linearGradient-1)" stroke-width="0.5" sketch:type="MSShapeGroup" transform="translate(649.517677, 1077.793945) rotate(-250.000000) translate(-649.517677, -1077.793945) "></path>
        <path d="M682.527276,1386.63275 L1047.25432,1092.50475 L1120.19973,1553.75093 L682.527276,1386.63275 L682.527276,1386.63275 Z" id="Shape" stroke="url(#linearGradient-1)" stroke-width="0.5" sketch:type="MSShapeGroup"></path>
        <path d="M1042.82441,1178.07402 L1318.28931,799.909442 L1508.3313,1226.77703 L1042.82441,1178.07402 L1042.82441,1178.07402 Z" id="Shape" stroke="url(#linearGradient-1)" stroke-width="0.5" sketch:type="MSShapeGroup" transform="translate(1277.977373, 1014.775678) rotate(-314.000000) translate(-1277.977373, -1014.775678) "></path>
        <path d="M960.340329,1213.51121 L1235.80523,835.346634 L1425.84722,1262.21422 L960.340329,1213.51121 L960.340329,1213.51121 Z" id="Shape" stroke="url(#linearGradient-1)" stroke-width="0.5" sketch:type="MSShapeGroup" transform="translate(1195.493293, 1050.212870) rotate(-248.000000) translate(-1195.493293, -1050.212870) "></path>
        <path d="M336.608868,1397.63275 L701.335915,1103.50475 L774.281324,1564.75093 L336.608868,1397.63275 L336.608868,1397.63275 Z" id="Shape-2" stroke="url(#linearGradient-1)" stroke-width="0.5" sketch:type="MSShapeGroup"></path>
        <path d="M2005.44088,529.523035 L1573.52728,711.920595 L1631.11576,248.764487 L2005.44088,529.523035 L2005.44088,529.523035 Z" id="Shape" stroke="url(#linearGradient-1)" stroke-width="0.5" sketch:type="MSShapeGroup"></path>
        <path d="M2176.71525,1022.2914 L1856.13937,681.370308 L2313.00799,577.279554 L2176.71525,1022.2914 L2176.71525,1022.2914 Z" id="Shape" stroke="url(#linearGradient-1)" stroke-width="0.5" sketch:type="MSShapeGroup"></path>
        <path d="M1941.92139,285.189476 L1975.51467,751.210467 L1554.15895,545.893842 L1941.92139,285.189476 L1941.92139,285.189476 Z" id="Shape" stroke="url(#linearGradient-1)" stroke-width="0.5" sketch:type="MSShapeGroup"></path>
        <path d="M1630.72824,414.927709 L1913.8716,787.362518 L1448.36471,843.70522 L1630.72824,414.927709 L1630.72824,414.927709 Z" id="Shape" stroke="url(#linearGradient-1)" stroke-width="0.5" sketch:type="MSShapeGroup"></path>
        <path d="M1351.72824,304.288697 L1634.8716,676.723506 L1169.36471,733.066208 L1351.72824,304.288697 L1351.72824,304.288697 Z" id="Shape" stroke="url(#linearGradient-1)" stroke-width="0.5" sketch:type="MSShapeGroup" transform="translate(1404.517677, 519.154933) rotate(-294.000000) translate(-1404.517677, -519.154933) "></path>
        <path d="M1487.72824,331.927709 L1770.8716,704.362518 L1305.36471,760.70522 L1487.72824,331.927709 L1487.72824,331.927709 Z" id="Shape" stroke="url(#linearGradient-1)" stroke-width="0.5" sketch:type="MSShapeGroup" transform="translate(1540.517677, 546.793945) rotate(-250.000000) translate(-1540.517677, -546.793945) "></path>
        <path d="M1573.52728,855.632752 L1938.25432,561.504749 L2011.19973,1022.75093 L1573.52728,855.632752 L1573.52728,855.632752 Z" id="Shape" stroke="url(#linearGradient-1)" stroke-width="0.5" sketch:type="MSShapeGroup"></path>
        <path d="M1933.82441,647.074017 L2209.28931,268.909442 L2399.3313,695.77703 L1933.82441,647.074017 L1933.82441,647.074017 Z" id="Shape" stroke="url(#linearGradient-1)" stroke-width="0.5" sketch:type="MSShapeGroup" transform="translate(2168.977373, 483.775678) rotate(-314.000000) translate(-2168.977373, -483.775678) "></path>
        <path d="M1851.34033,682.511209 L2126.80523,304.346634 L2316.84722,731.214222 L1851.34033,682.511209 L1851.34033,682.511209 Z" id="Shape" stroke="url(#linearGradient-1)" stroke-width="0.5" sketch:type="MSShapeGroup" transform="translate(2086.493293, 519.212870) rotate(-248.000000) translate(-2086.493293, -519.212870) "></path>
        <path d="M1227.60887,866.632752 L1592.33591,572.504749 L1665.28132,1033.75093 L1227.60887,866.632752 L1227.60887,866.632752 Z" id="Shape-2" stroke="url(#linearGradient-1)" stroke-width="0.5" sketch:type="MSShapeGroup"></path>
        <path d="M1976.47272,1393.06315 L1544.55912,1575.46071 L1602.1476,1112.3046 L1976.47272,1393.06315 L1976.47272,1393.06315 Z" id="Shape" stroke="url(#linearGradient-1)" stroke-width="0.5" sketch:type="MSShapeGroup" transform="translate(1760.515920, 1346.270056) rotate(-180.000000) translate(-1760.515920, -1346.270056) "></path>
        <path d="M1553.72866,1247.9006 L1233.15278,906.979508 L1690.0214,802.888753 L1553.72866,1247.9006 L1553.72866,1247.9006 Z" id="Shape" stroke="url(#linearGradient-1)" stroke-width="0.5" sketch:type="MSShapeGroup" transform="translate(1463.506707, 1027.304600) rotate(-180.000000) translate(-1463.506707, -1027.304600) "></path>
        <path d="M1961.28796,1075.87961 L1994.88124,1541.9006 L1573.52552,1336.58398 L1961.28796,1075.87961 L1961.28796,1075.87961 Z" id="Shape" stroke="url(#linearGradient-1)" stroke-width="0.5" sketch:type="MSShapeGroup" transform="translate(1784.683283, 1309.845067) rotate(-180.000000) translate(-1784.683283, -1309.845067) "></path>
        <path d="M1813.69288,984.339819 L2096.83625,1356.77463 L1631.32936,1413.11733 L1813.69288,984.339819 L1813.69288,984.339819 Z" id="Shape" stroke="url(#linearGradient-1)" stroke-width="0.5" sketch:type="MSShapeGroup" transform="translate(1866.482323, 1199.206055) rotate(-180.000000) translate(-1866.482323, -1199.206055) "></path>
        <path d="M2092.69288,1094.97883 L2375.83625,1467.41364 L1910.32936,1523.75634 L2092.69288,1094.97883 L2092.69288,1094.97883 Z" id="Shape" stroke="url(#linearGradient-1)" stroke-width="0.5" sketch:type="MSShapeGroup" transform="translate(2145.482323, 1309.845067) rotate(-114.000000) translate(-2145.482323, -1309.845067) "></path>
        <path d="M1956.69288,1067.33982 L2239.83625,1439.77463 L1774.32936,1496.11733 L1956.69288,1067.33982 L1956.69288,1067.33982 Z" id="Shape" stroke="url(#linearGradient-1)" stroke-width="0.5" sketch:type="MSShapeGroup" transform="translate(2009.482323, 1282.206055) rotate(-70.000000) translate(-2009.482323, -1282.206055) "></path>
        <path d="M1534.96104,1103.24195 L1899.68808,809.113948 L1972.63349,1270.36013 L1534.96104,1103.24195 L1534.96104,1103.24195 Z" id="Shape" stroke="url(#linearGradient-1)" stroke-width="0.5" sketch:type="MSShapeGroup" transform="translate(1755.716880, 1038.304600) rotate(-180.000000) translate(-1755.716880, -1038.304600) "></path>
        <path d="M1145.86966,1508.52266 L1421.33456,1130.35809 L1611.37655,1557.22567 L1145.86966,1508.52266 L1145.86966,1508.52266 Z" id="Shape" stroke="url(#linearGradient-1)" stroke-width="0.5" sketch:type="MSShapeGroup" transform="translate(1381.022627, 1345.224322) rotate(-134.000000) translate(-1381.022627, -1345.224322) "></path>
        <path d="M1228.35374,1473.08547 L1503.81864,1094.92089 L1693.86063,1521.78848 L1228.35374,1473.08547 L1228.35374,1473.08547 Z" id="Shape" stroke="url(#linearGradient-1)" stroke-width="0.5" sketch:type="MSShapeGroup" transform="translate(1463.506707, 1309.787130) rotate(-68.000000) translate(-1463.506707, -1309.787130) "></path>
        <path d="M1880.87944,1092.24195 L2245.60649,798.113948 L2318.5519,1259.36013 L1880.87944,1092.24195 L1880.87944,1092.24195 Z" id="Shape-2" stroke="url(#linearGradient-1)" stroke-width="0.5" sketch:type="MSShapeGroup" transform="translate(2101.635288, 1027.304600) rotate(-180.000000) translate(-2101.635288, -1027.304600) "></path>
        <path d="M1018.44088,965.523035 L586.527276,1147.9206 L644.115757,684.764487 L1018.44088,965.523035 L1018.44088,965.523035 Z" id="Shape" stroke="url(#linearGradient-1)" stroke-width="0.5" sketch:type="MSShapeGroup"></path>
        <path d="M1189.71525,1458.2914 L869.139369,1117.37031 L1326.00799,1013.27955 L1189.71525,1458.2914 L1189.71525,1458.2914 Z" id="Shape" stroke="url(#linearGradient-1)" stroke-width="0.5" sketch:type="MSShapeGroup"></path>
        <path d="M954.921392,721.189476 L988.514673,1187.21047 L567.158953,981.893842 L954.921392,721.189476 L954.921392,721.189476 Z" id="Shape" stroke="url(#linearGradient-1)" stroke-width="0.5" sketch:type="MSShapeGroup"></path>
        <path d="M643.728236,850.927709 L926.871601,1223.36252 L461.364712,1279.70522 L643.728236,850.927709 L643.728236,850.927709 Z" id="Shape" stroke="url(#linearGradient-1)" stroke-width="0.5" sketch:type="MSShapeGroup"></path>
        <path d="M364.728236,740.288697 L647.871601,1112.72351 L182.364712,1169.06621 L364.728236,740.288697 L364.728236,740.288697 Z" id="Shape" stroke="url(#linearGradient-1)" stroke-width="0.5" sketch:type="MSShapeGroup" transform="translate(417.517677, 955.154933) rotate(-294.000000) translate(-417.517677, -955.154933) "></path>
        <path d="M500.728236,767.927709 L783.871601,1140.36252 L318.364712,1196.70522 L500.728236,767.927709 L500.728236,767.927709 Z" id="Shape" stroke="url(#linearGradient-1)" stroke-width="0.5" sketch:type="MSShapeGroup" transform="translate(553.517677, 982.793945) rotate(-250.000000) translate(-553.517677, -982.793945) "></path>
        <path d="M586.527276,1291.63275 L951.254323,997.504749 L1024.19973,1458.75093 L586.527276,1291.63275 L586.527276,1291.63275 Z" id="Shape" stroke="url(#linearGradient-1)" stroke-width="0.5" sketch:type="MSShapeGroup"></path>
        <path d="M946.824409,1083.07402 L1222.28931,704.909442 L1412.3313,1131.77703 L946.824409,1083.07402 L946.824409,1083.07402 Z" id="Shape" stroke="url(#linearGradient-1)" stroke-width="0.5" sketch:type="MSShapeGroup" transform="translate(1181.977373, 919.775678) rotate(-314.000000) translate(-1181.977373, -919.775678) "></path>
        <path d="M864.340329,1118.51121 L1139.80523,740.346634 L1329.84722,1167.21422 L864.340329,1118.51121 L864.340329,1118.51121 Z" id="Shape" stroke="url(#linearGradient-1)" stroke-width="0.5" sketch:type="MSShapeGroup" transform="translate(1099.493293, 955.212870) rotate(-248.000000) translate(-1099.493293, -955.212870) "></path>
        <path d="M240.608868,1302.63275 L605.335915,1008.50475 L678.281324,1469.75093 L240.608868,1302.63275 L240.608868,1302.63275 Z" id="Shape-2" stroke="url(#linearGradient-1)" stroke-width="0.5" sketch:type="MSShapeGroup"></path>
        <path d="M1114.44088,1542.52304 L682.527276,1724.9206 L740.115757,1261.76449 L1114.44088,1542.52304 L1114.44088,1542.52304 Z" id="Shape" stroke="url(#linearGradient-1)" stroke-width="0.5" sketch:type="MSShapeGroup"></path>
        <path d="M1285.71525,2035.2914 L965.139369,1694.37031 L1422.00799,1590.27955 L1285.71525,2035.2914 L1285.71525,2035.2914 Z" id="Shape" stroke="url(#linearGradient-1)" stroke-width="0.5" sketch:type="MSShapeGroup"></path>
        <path d="M1050.92139,1298.18948 L1084.51467,1764.21047 L663.158953,1558.89384 L1050.92139,1298.18948 L1050.92139,1298.18948 Z" id="Shape" stroke="url(#linearGradient-1)" stroke-width="0.5" sketch:type="MSShapeGroup"></path>
        <path d="M739.728236,1427.92771 L1022.8716,1800.36252 L557.364712,1856.70522 L739.728236,1427.92771 L739.728236,1427.92771 Z" id="Shape" stroke="url(#linearGradient-1)" stroke-width="0.5" sketch:type="MSShapeGroup"></path>
        <path d="M460.728236,1317.2887 L743.871601,1689.72351 L278.364712,1746.06621 L460.728236,1317.2887 L460.728236,1317.2887 Z" id="Shape" stroke="url(#linearGradient-1)" stroke-width="0.5" sketch:type="MSShapeGroup" transform="translate(513.517677, 1532.154933) rotate(-294.000000) translate(-513.517677, -1532.154933) "></path>
        <path d="M596.728236,1344.92771 L879.871601,1717.36252 L414.364712,1773.70522 L596.728236,1344.92771 L596.728236,1344.92771 Z" id="Shape" stroke="url(#linearGradient-1)" stroke-width="0.5" sketch:type="MSShapeGroup" transform="translate(649.517677, 1559.793945) rotate(-250.000000) translate(-649.517677, -1559.793945) "></path>
        <path d="M682.527276,1868.63275 L1047.25432,1574.50475 L1120.19973,2035.75093 L682.527276,1868.63275 L682.527276,1868.63275 Z" id="Shape" stroke="url(#linearGradient-1)" stroke-width="0.5" sketch:type="MSShapeGroup"></path>
        <path d="M1042.82441,1660.07402 L1318.28931,1281.90944 L1508.3313,1708.77703 L1042.82441,1660.07402 L1042.82441,1660.07402 Z" id="Shape" stroke="url(#linearGradient-1)" stroke-width="0.5" sketch:type="MSShapeGroup" transform="translate(1277.977373, 1496.775678) rotate(-314.000000) translate(-1277.977373, -1496.775678) "></path>
        <path d="M960.340329,1695.51121 L1235.80523,1317.34663 L1425.84722,1744.21422 L960.340329,1695.51121 L960.340329,1695.51121 Z" id="Shape" stroke="url(#linearGradient-1)" stroke-width="0.5" sketch:type="MSShapeGroup" transform="translate(1195.493293, 1532.212870) rotate(-248.000000) translate(-1195.493293, -1532.212870) "></path>
        <path d="M336.608868,1879.63275 L701.335915,1585.50475 L774.281324,2046.75093 L336.608868,1879.63275 L336.608868,1879.63275 Z" id="Shape-2" stroke="url(#linearGradient-1)" stroke-width="0.5" sketch:type="MSShapeGroup"></path>
        <path d="M2005.44088,1011.52304 L1573.52728,1193.9206 L1631.11576,730.764487 L2005.44088,1011.52304 L2005.44088,1011.52304 Z" id="Shape" stroke="url(#linearGradient-1)" stroke-width="0.5" sketch:type="MSShapeGroup"></path>
        <path d="M2176.71525,1504.2914 L1856.13937,1163.37031 L2313.00799,1059.27955 L2176.71525,1504.2914 L2176.71525,1504.2914 Z" id="Shape" stroke="url(#linearGradient-1)" stroke-width="0.5" sketch:type="MSShapeGroup"></path>
        <path d="M1941.92139,767.189476 L1975.51467,1233.21047 L1554.15895,1027.89384 L1941.92139,767.189476 L1941.92139,767.189476 Z" id="Shape" stroke="url(#linearGradient-1)" stroke-width="0.5" sketch:type="MSShapeGroup"></path>
        <path d="M1630.72824,896.927709 L1913.8716,1269.36252 L1448.36471,1325.70522 L1630.72824,896.927709 L1630.72824,896.927709 Z" id="Shape" stroke="url(#linearGradient-1)" stroke-width="0.5" sketch:type="MSShapeGroup"></path>
        <path d="M1351.72824,786.288697 L1634.8716,1158.72351 L1169.36471,1215.06621 L1351.72824,786.288697 L1351.72824,786.288697 Z" id="Shape" stroke="url(#linearGradient-1)" stroke-width="0.5" sketch:type="MSShapeGroup" transform="translate(1404.517677, 1001.154933) rotate(-294.000000) translate(-1404.517677, -1001.154933) "></path>
        <path d="M1487.72824,813.927709 L1770.8716,1186.36252 L1305.36471,1242.70522 L1487.72824,813.927709 L1487.72824,813.927709 Z" id="Shape" stroke="url(#linearGradient-1)" stroke-width="0.5" sketch:type="MSShapeGroup" transform="translate(1540.517677, 1028.793945) rotate(-250.000000) translate(-1540.517677, -1028.793945) "></path>
        <path d="M1573.52728,1337.63275 L1938.25432,1043.50475 L2011.19973,1504.75093 L1573.52728,1337.63275 L1573.52728,1337.63275 Z" id="Shape" stroke="url(#linearGradient-1)" stroke-width="0.5" sketch:type="MSShapeGroup"></path>
        <path d="M1933.82441,1129.07402 L2209.28931,750.909442 L2399.3313,1177.77703 L1933.82441,1129.07402 L1933.82441,1129.07402 Z" id="Shape" stroke="url(#linearGradient-1)" stroke-width="0.5" sketch:type="MSShapeGroup" transform="translate(2168.977373, 965.775678) rotate(-314.000000) translate(-2168.977373, -965.775678) "></path>
        <path d="M1851.34033,1164.51121 L2126.80523,786.346634 L2316.84722,1213.21422 L1851.34033,1164.51121 L1851.34033,1164.51121 Z" id="Shape" stroke="url(#linearGradient-1)" stroke-width="0.5" sketch:type="MSShapeGroup" transform="translate(2086.493293, 1001.212870) rotate(-248.000000) translate(-2086.493293, -1001.212870) "></path>
        <path d="M1227.60887,1348.63275 L1592.33591,1054.50475 L1665.28132,1515.75093 L1227.60887,1348.63275 L1227.60887,1348.63275 Z" id="Shape-2" stroke="url(#linearGradient-1)" stroke-width="0.5" sketch:type="MSShapeGroup"></path>
        <path d="M1976.47272,1875.06315 L1544.55912,2057.46071 L1602.1476,1594.3046 L1976.47272,1875.06315 L1976.47272,1875.06315 Z" id="Shape" stroke="url(#linearGradient-1)" stroke-width="0.5" sketch:type="MSShapeGroup" transform="translate(1760.515920, 1828.270056) rotate(-180.000000) translate(-1760.515920, -1828.270056) "></path>
        <path d="M1553.72866,1729.9006 L1233.15278,1388.97951 L1690.0214,1284.88875 L1553.72866,1729.9006 L1553.72866,1729.9006 Z" id="Shape" stroke="url(#linearGradient-1)" stroke-width="0.5" sketch:type="MSShapeGroup" transform="translate(1463.506707, 1509.304600) rotate(-180.000000) translate(-1463.506707, -1509.304600) "></path>
        <path d="M1961.28796,1557.87961 L1994.88124,2023.9006 L1573.52552,1818.58398 L1961.28796,1557.87961 L1961.28796,1557.87961 Z" id="Shape" stroke="url(#linearGradient-1)" stroke-width="0.5" sketch:type="MSShapeGroup" transform="translate(1784.683283, 1791.845067) rotate(-180.000000) translate(-1784.683283, -1791.845067) "></path>
        <path d="M1813.69288,1466.33982 L2096.83625,1838.77463 L1631.32936,1895.11733 L1813.69288,1466.33982 L1813.69288,1466.33982 Z" id="Shape" stroke="url(#linearGradient-1)" stroke-width="0.5" sketch:type="MSShapeGroup" transform="translate(1866.482323, 1681.206055) rotate(-180.000000) translate(-1866.482323, -1681.206055) "></path>
        <path d="M2092.69288,1576.97883 L2375.83625,1949.41364 L1910.32936,2005.75634 L2092.69288,1576.97883 L2092.69288,1576.97883 Z" id="Shape" stroke="url(#linearGradient-1)" stroke-width="0.5" sketch:type="MSShapeGroup" transform="translate(2145.482323, 1791.845067) rotate(-114.000000) translate(-2145.482323, -1791.845067) "></path>
        <path d="M1956.69288,1549.33982 L2239.83625,1921.77463 L1774.32936,1978.11733 L1956.69288,1549.33982 L1956.69288,1549.33982 Z" id="Shape" stroke="url(#linearGradient-1)" stroke-width="0.5" sketch:type="MSShapeGroup" transform="translate(2009.482323, 1764.206055) rotate(-70.000000) translate(-2009.482323, -1764.206055) "></path>
        <path d="M1534.96104,1585.24195 L1899.68808,1291.11395 L1972.63349,1752.36013 L1534.96104,1585.24195 L1534.96104,1585.24195 Z" id="Shape" stroke="url(#linearGradient-1)" stroke-width="0.5" sketch:type="MSShapeGroup" transform="translate(1755.716880, 1520.304600) rotate(-180.000000) translate(-1755.716880, -1520.304600) "></path>
        <path d="M1145.86966,1990.52266 L1421.33456,1612.35809 L1611.37655,2039.22567 L1145.86966,1990.52266 L1145.86966,1990.52266 Z" id="Shape" stroke="url(#linearGradient-1)" stroke-width="0.5" sketch:type="MSShapeGroup" transform="translate(1381.022627, 1827.224322) rotate(-134.000000) translate(-1381.022627, -1827.224322) "></path>
        <path d="M1228.35374,1955.08547 L1503.81864,1576.92089 L1693.86063,2003.78848 L1228.35374,1955.08547 L1228.35374,1955.08547 Z" id="Shape" stroke="url(#linearGradient-1)" stroke-width="0.5" sketch:type="MSShapeGroup" transform="translate(1463.506707, 1791.787130) rotate(-68.000000) translate(-1463.506707, -1791.787130) "></path>
        <path d="M1880.87944,1574.24195 L2245.60649,1280.11395 L2318.5519,1741.36013 L1880.87944,1574.24195 L1880.87944,1574.24195 Z" id="Shape-2" stroke="url(#linearGradient-1)" stroke-width="0.5" sketch:type="MSShapeGroup" transform="translate(2101.635288, 1509.304600) rotate(-180.000000) translate(-2101.635288, -1509.304600) "></path>
    </g>
</svg>