<?xml version="1.0" encoding="UTF-8" standalone="no"?>
<svg width="156px" height="156px" viewBox="0 0 156 156" version="1.1" xmlns="http://www.w3.org/2000/svg" xmlns:xlink="http://www.w3.org/1999/xlink" xmlns:sketch="http://www.bohemiancoding.com/sketch/ns">
    <title>Untitled</title>
    <description>Created with Sketch (http://www.bohemiancoding.com/sketch)</description>
    <defs></defs>
    <g id="Page-1" stroke="none" stroke-width="1" fill="none" fill-rule="evenodd" sketch:type="MSPage">
        <path d="M135.906,129.136 C136.172,128.833 136.436,128.53 136.697,128.223 C137.234,127.592 137.759,126.953 138.275,126.305 C138.512,126.007 138.748,125.708 138.981,125.407 C139.501,124.735 140.009,124.054 140.507,123.365 C140.717,123.074 140.925,122.781 141.132,122.487 C141.633,121.773 142.122,121.052 142.599,120.321 C142.783,120.039 142.964,119.754 143.145,119.469 C143.625,118.712 144.092,117.949 144.546,117.175 C144.705,116.904 144.86,116.631 145.016,116.358 C145.472,115.559 145.915,114.753 146.343,113.936 C146.478,113.677 146.61,113.416 146.743,113.156 C147.172,112.314 147.588,111.466 147.987,110.606 C148.1,110.363 148.208,110.117 148.319,109.872 C148.719,108.986 149.105,108.094 149.472,107.191 C149.564,106.965 149.651,106.736 149.741,106.509 C150.108,105.58 150.462,104.644 150.794,103.698 C150.867,103.49 150.935,103.28 151.006,103.071 C151.338,102.097 151.656,101.118 151.95,100.127 C152.005,99.942 152.055,99.755 152.109,99.569 C152.403,98.55 152.682,97.524 152.935,96.488 C152.974,96.327 153.009,96.164 153.047,96.002 C153.3,94.936 153.536,93.864 153.744,92.781 C153.769,92.649 153.79,92.516 153.815,92.384 C154.024,91.268 154.214,90.146 154.374,89.013 C154.388,88.916 154.398,88.818 154.411,88.721 C154.572,87.551 154.712,86.375 154.82,85.188 C154.825,85.133 154.828,85.077 154.833,85.022 C154.943,83.792 155.027,82.555 155.079,81.31 L155.079,81.31 L155.079,81.31 C155.124,80.225 155.162,79.139 155.162,78.043 C155.162,76.947 155.124,75.861 155.079,74.776 L155.079,74.776 L155.079,74.776 C155.027,73.531 154.943,72.294 154.833,71.064 C154.828,71.009 154.825,70.953 154.82,70.898 C154.712,69.712 154.572,68.536 154.411,67.366 C154.398,67.269 154.388,67.17 154.374,67.073 C154.214,65.941 154.024,64.819 153.815,63.703 C153.79,63.57 153.769,63.437 153.744,63.304 C153.536,62.222 153.3,61.15 153.047,60.085 C153.009,59.923 152.974,59.76 152.935,59.598 C152.682,58.562 152.404,57.537 152.11,56.518 C152.056,56.332 152.006,56.144 151.951,55.958 C151.657,54.969 151.34,53.99 151.009,53.018 C150.937,52.808 150.869,52.596 150.795,52.386 C150.464,51.442 150.111,50.508 149.744,49.581 C149.653,49.351 149.565,49.12 149.472,48.892 C149.106,47.991 148.72,47.101 148.321,46.217 C148.21,45.971 148.101,45.723 147.987,45.478 C147.589,44.619 147.173,43.771 146.744,42.93 C146.611,42.67 146.48,42.409 146.344,42.15 C145.917,41.334 145.473,40.528 145.018,39.729 C144.862,39.455 144.706,39.182 144.547,38.91 C144.093,38.136 143.626,37.373 143.147,36.617 C142.966,36.332 142.785,36.048 142.601,35.765 C142.124,35.034 141.635,34.313 141.135,33.6 C140.928,33.305 140.72,33.011 140.509,32.719 C140.012,32.03 139.503,31.35 138.984,30.679 C138.751,30.377 138.515,30.078 138.277,29.779 C137.761,29.132 137.236,28.493 136.701,27.863 C136.439,27.555 136.174,27.25 135.907,26.946 C135.376,26.341 134.838,25.744 134.289,25.156 C133.998,24.844 133.703,24.537 133.407,24.231 C132.862,23.667 132.312,23.109 131.75,22.561 C131.43,22.249 131.105,21.943 130.78,21.637 C130.223,21.112 129.661,20.593 129.089,20.084 C128.74,19.774 128.385,19.471 128.031,19.167 C127.464,18.681 126.894,18.2 126.312,17.73 C125.933,17.424 125.547,17.126 125.163,16.827 C124.588,16.38 124.011,15.936 123.424,15.506 C123.014,15.205 122.597,14.914 122.18,14.622 C121.599,14.214 121.018,13.807 120.425,13.414 C119.985,13.122 119.538,12.842 119.092,12.559 C118.506,12.188 117.92,11.816 117.324,11.46 C116.853,11.179 116.375,10.911 115.898,10.64 C115.309,10.305 114.721,9.969 114.123,9.65 C113.622,9.382 113.113,9.13 112.605,8.873 C112.014,8.574 111.426,8.273 110.827,7.988 C110.296,7.736 109.756,7.501 109.218,7.261 C108.627,6.997 108.038,6.729 107.44,6.48 C106.879,6.246 106.309,6.031 105.742,5.811 C105.152,5.581 104.565,5.346 103.968,5.131 C103.377,4.918 102.776,4.725 102.179,4.526 C101.592,4.33 101.008,4.127 100.415,3.945 C99.793,3.754 99.163,3.586 98.534,3.411 C97.951,3.248 97.373,3.077 96.784,2.927 C96.13,2.761 95.467,2.62 94.806,2.471 C94.231,2.341 93.661,2.2 93.082,2.083 C92.39,1.943 91.688,1.83 90.99,1.709 C90.432,1.612 89.878,1.502 89.315,1.418 C88.567,1.305 87.81,1.222 87.055,1.131 C86.531,1.068 86.012,0.989 85.486,0.937 C84.636,0.852 83.776,0.799 82.917,0.742 C82.477,0.712 82.042,0.666 81.6,0.644 C80.296,0.579 78.983,0.544 77.662,0.544 C76.467,0.544 75.282,0.58 74.101,0.634 C73.85,0.645 73.599,0.656 73.349,0.67 C72.208,0.733 71.073,0.817 69.946,0.929 C69.732,0.95 69.519,0.977 69.305,1 C68.293,1.109 67.287,1.236 66.287,1.384 C66.085,1.414 65.881,1.439 65.68,1.47 C64.594,1.639 63.516,1.834 62.446,2.048 C62.155,2.106 61.865,2.167 61.575,2.228 C60.512,2.453 59.455,2.691 58.408,2.959 C58.234,3.003 58.063,3.054 57.89,3.1 C56.979,3.34 56.075,3.598 55.177,3.871 C54.865,3.965 54.553,4.058 54.243,4.156 C53.273,4.464 52.31,4.788 51.356,5.133 C51.038,5.248 50.723,5.369 50.407,5.488 C49.635,5.778 48.87,6.08 48.11,6.394 C47.833,6.508 47.553,6.617 47.278,6.735 C46.371,7.122 45.476,7.531 44.587,7.951 C44.236,8.117 43.886,8.286 43.538,8.457 C42.663,8.887 41.794,9.327 40.939,9.788 L40.939,9.788 C36.99,11.917 33.257,14.392 29.757,17.149 C29.685,17.206 29.612,17.262 29.54,17.32 C27.815,18.689 26.15,20.128 24.548,21.637 C24.445,21.734 24.343,21.832 24.241,21.93 C23.291,22.834 22.365,23.762 21.462,24.713 C21.347,24.834 21.231,24.953 21.117,25.075 C20.63,25.594 20.149,26.119 19.676,26.651 C19.652,26.678 19.629,26.705 19.606,26.732 C18.719,27.734 17.861,28.761 17.026,29.808 C16.819,30.067 16.615,30.328 16.412,30.59 C15.801,31.377 15.206,32.177 14.626,32.988 C14.381,33.33 14.134,33.671 13.894,34.017 C13.561,34.498 13.235,34.983 12.913,35.472 C12.621,35.915 12.337,36.363 12.054,36.812 C11.636,37.476 11.226,38.146 10.828,38.824 C10.544,39.307 10.264,39.793 9.99,40.282 C9.751,40.71 9.51,41.137 9.279,41.569 C8.858,42.356 8.451,43.152 8.057,43.955 C7.862,44.352 7.674,44.752 7.486,45.152 C7.166,45.833 6.856,46.519 6.556,47.21 C6.379,47.618 6.204,48.026 6.033,48.438 C5.708,49.222 5.397,50.013 5.098,50.81 C4.968,51.155 4.839,51.499 4.714,51.846 C4.374,52.792 4.05,53.745 3.746,54.708 C3.656,54.993 3.573,55.281 3.486,55.567 C3.223,56.435 2.974,57.308 2.741,58.189 C2.682,58.414 2.617,58.637 2.56,58.862 C2.295,59.902 2.056,60.953 1.834,62.009 C1.775,62.289 1.718,62.569 1.662,62.85 C1.447,63.931 1.249,65.018 1.079,66.115 C1.055,66.273 1.035,66.433 1.012,66.591 C0.86,67.619 0.729,68.654 0.618,69.695 C0.595,69.912 0.568,70.129 0.547,70.347 C0.436,71.474 0.351,72.609 0.288,73.75 C0.27,73.99 0.26,74.232 0.249,74.474 C0.195,75.658 0.159,76.846 0.159,78.043 C0.159,79.24 0.195,80.428 0.249,81.612 C0.26,81.854 0.27,82.096 0.283,82.337 C0.345,83.478 0.431,84.613 0.542,85.74 C0.563,85.958 0.59,86.174 0.613,86.392 C0.725,87.433 0.855,88.468 1.007,89.496 C1.03,89.654 1.05,89.814 1.074,89.972 C1.244,91.069 1.442,92.156 1.657,93.237 C1.713,93.518 1.77,93.798 1.829,94.078 C2.052,95.135 2.29,96.185 2.555,97.225 C2.612,97.451 2.677,97.673 2.736,97.898 C2.969,98.778 3.218,99.652 3.481,100.52 C3.568,100.807 3.651,101.094 3.741,101.379 C4.045,102.342 4.369,103.295 4.709,104.241 C4.834,104.588 4.963,104.933 5.093,105.277 C5.393,106.074 5.703,106.865 6.028,107.649 C6.198,108.06 6.373,108.468 6.551,108.876 C6.852,109.568 7.162,110.254 7.482,110.935 C7.67,111.335 7.858,111.734 8.052,112.131 C8.447,112.934 8.853,113.731 9.275,114.518 C9.506,114.951 9.747,115.377 9.986,115.805 C10.26,116.295 10.54,116.78 10.824,117.263 C11.223,117.941 11.632,118.611 12.05,119.275 C12.333,119.724 12.617,120.173 12.909,120.615 C13.231,121.104 13.558,121.589 13.89,122.07 C14.13,122.416 14.376,122.757 14.622,123.099 C15.203,123.91 15.797,124.709 16.408,125.496 C16.612,125.759 16.817,126.02 17.024,126.28 C17.857,127.326 18.715,128.351 19.6,129.352 C19.625,129.38 19.649,129.409 19.673,129.437 C20.145,129.97 20.627,130.494 21.113,131.013 C21.227,131.135 21.343,131.254 21.458,131.375 C22.36,132.326 23.286,133.253 24.235,134.156 C24.338,134.254 24.441,134.354 24.545,134.451 C26.146,135.959 27.811,137.398 29.535,138.767 C29.607,138.824 29.68,138.881 29.752,138.938 C33.253,141.696 36.986,144.171 40.936,146.3 C41.791,146.761 42.658,147.2 43.532,147.629 C43.881,147.801 44.231,147.969 44.583,148.136 C45.471,148.556 46.366,148.965 47.273,149.352 C47.549,149.47 47.829,149.579 48.107,149.693 C48.866,150.006 49.631,150.308 50.401,150.598 C50.717,150.717 51.032,150.839 51.351,150.953 C52.305,151.297 53.268,151.622 54.238,151.93 C54.548,152.028 54.859,152.121 55.17,152.215 C56.069,152.487 56.973,152.746 57.886,152.986 C58.059,153.031 58.229,153.082 58.402,153.127 C59.448,153.395 60.506,153.633 61.569,153.858 C61.859,153.919 62.149,153.98 62.44,154.038 C63.511,154.252 64.588,154.447 65.674,154.616 C65.876,154.647 66.079,154.673 66.281,154.702 C67.281,154.849 68.287,154.977 69.299,155.086 C69.513,155.109 69.726,155.136 69.94,155.157 C71.067,155.269 72.202,155.353 73.343,155.416 C73.593,155.43 73.844,155.44 74.095,155.452 C75.276,155.506 76.462,155.542 77.656,155.542 C78.977,155.542 80.289,155.508 81.594,155.442 C82.036,155.42 82.471,155.374 82.911,155.344 C83.769,155.286 84.629,155.234 85.48,155.149 C86.007,155.096 86.526,155.018 87.049,154.955 C87.804,154.864 88.561,154.781 89.309,154.668 C89.871,154.583 90.426,154.473 90.984,154.377 C91.683,154.256 92.384,154.143 93.076,154.003 C93.655,153.886 94.225,153.745 94.8,153.615 C95.46,153.466 96.124,153.325 96.778,153.159 C97.366,153.01 97.945,152.838 98.528,152.675 C99.156,152.5 99.787,152.332 100.409,152.141 C101.002,151.959 101.586,151.756 102.173,151.56 C102.771,151.361 103.371,151.168 103.962,150.955 C104.56,150.739 105.147,150.504 105.738,150.274 C106.305,150.053 106.874,149.839 107.434,149.605 C108.034,149.355 108.623,149.087 109.215,148.822 C109.752,148.582 110.291,148.348 110.821,148.096 C111.42,147.812 112.009,147.51 112.6,147.211 C113.107,146.954 113.616,146.702 114.117,146.434 C114.716,146.114 115.305,145.777 115.895,145.442 C116.371,145.171 116.848,144.904 117.318,144.624 C117.915,144.267 118.502,143.896 119.088,143.524 C119.534,143.241 119.981,142.961 120.42,142.67 C121.014,142.277 121.596,141.869 122.178,141.46 C122.592,141.168 123.008,140.879 123.416,140.579 C124.005,140.148 124.582,139.703 125.158,139.256 C125.542,138.957 125.928,138.66 126.306,138.354 C126.887,137.885 127.457,137.403 128.024,136.918 C128.379,136.614 128.734,136.311 129.083,136 C129.656,135.491 130.218,134.971 130.775,134.446 C131.099,134.141 131.423,133.836 131.741,133.525 C132.304,132.976 132.856,132.416 133.403,131.85 C133.697,131.545 133.991,131.24 134.28,130.93 C134.834,130.342 135.373,129.743 135.906,129.136 L135.906,129.136 Z M141.13,66.647 C141.793,70.349 142.159,74.153 142.159,78.043 C142.159,81.933 141.793,85.737 141.13,89.439 L54.891,138.38 C46.788,135.312 39.466,130.655 33.292,124.794 L33.292,31.292 C39.465,25.43 46.788,20.773 54.891,17.705 L141.13,66.647 L141.13,66.647 Z" id="Shape" fill-opacity="0.499339384" fill="#FFFFFF" sketch:type="MSShapeGroup"></path>
        <path d="M60.863,108.753 L111.93,79.772 C113.09,78.911 113.09,77.176 111.93,76.315 L60.863,47.334 C59.443,46.28 57.427,47.294 57.427,49.063 L57.427,107.024 C57.427,108.793 59.442,109.807 60.863,108.753 L60.863,108.753 Z" id="Shape" fill-opacity="0.499339384" fill="#FFFFFF" sketch:type="MSShapeGroup"></path>
    </g>
</svg>